<?xml version="1.0" standalone="no"?>
<!DOCTYPE svg PUBLIC "-//W3C//DTD SVG 1.1//EN" "http://www.w3.org/Graphics/SVG/1.1/DTD/svg11.dtd" >
<svg xmlns="http://www.w3.org/2000/svg" xmlns:xlink="http://www.w3.org/1999/xlink" version="1.1">
<metadata>
Created by FontForge 20200314 at Tue Sep  9 17:16:18 2014
 By Unknown
Copyright (c) 2010-2011 Typodermic Fonts. This font is not freely distributable. Kerning &#38; languages by Chikako Larabie. Visit typodermicfonts.com for more info.
</metadata>
<defs>
<font id="BiondiSansW00-Regular" horiz-adv-x="596" >
  <font-face 
    font-family="BiondiSansW00-Regular"
    font-weight="400"
    font-stretch="normal"
    units-per-em="1000"
    panose-1="2 11 6 5 3 0 0 2 0 4"
    ascent="800"
    descent="-200"
    x-height="534"
    cap-height="717"
    bbox="-204 -240 1339 960"
    underline-thickness="50"
    underline-position="-175"
    unicode-range="U+0017-F8FF"
  />
<missing-glyph horiz-adv-x="893" 
d="M70 -211v1028h753v-1028h-753zM351 57q13 51 42.5 75t67.5 36t81.5 20t84.5 29q75 38 109 92t34 132q0 73 -34.5 130.5t-91.5 97.5t-130 60.5t-151 20.5q-66 0 -128.5 -19.5t-119.5 -59.5l112 -147q39 23 77.5 34.5t80.5 11.5q24 0 59 -7t67 -21.5t55 -37.5t23 -56
q0 -11 -3 -21q-11 -41 -36.5 -60t-61.5 -29.5t-80 -20t-92 -31.5q-32 -15 -52 -33.5t-33.5 -41.5t-22.5 -50.5t-18 -60.5zM255 -161q18 0 33.5 7.5t27.5 20.5t18.5 30t6.5 36t-9.5 35t-25 27t-36 17t-42.5 6q-17 0 -33.5 -5t-29.5 -15.5t-21 -28t-8 -41.5q0 -20 9.5 -36
t25.5 -28t38 -18.5t46 -6.5z" />
    <glyph glyph-name="copyright" unicode="&#x28;C&#x29;" horiz-adv-x="789" 
d="M396 -14q-78 0 -142.5 29.5t-110 79.5t-71 116.5t-25.5 140.5q0 79 28 148t75.5 120t111 80t134.5 29q70 0 133 -29t110 -80t75 -120t28 -148q0 -74 -25.5 -140.5t-71.5 -116.5t-109.5 -79.5t-139.5 -29.5zM396 57q60 0 109 24.5t84 66t54.5 94.5t19.5 110
q0 60 -18 113.5t-52.5 94.5t-84 65t-112.5 24t-113 -24t-85 -65t-53.5 -94.5t-18.5 -113.5q0 -57 19.5 -110t55.5 -94.5t85.5 -66t109.5 -24.5zM526 236q-35 -59 -127 -59q-39 0 -69 13t-51 36t-32 55t-11 70q0 29 9.5 60t30 56.5t51.5 42t73 16.5q50 0 78.5 -15t50.5 -42
l-37 -50q-17 20 -35.5 29.5t-53.5 9.5q-25 0 -42.5 -9.5t-29 -25t-17 -34.5t-5.5 -38q0 -46 23.5 -77t71.5 -31q26 0 45.5 8.5t33.5 29.5z" />
    <glyph glyph-name="registered" unicode="&#x28;R&#x29;" horiz-adv-x="797" 
d="M399 -14q-79 0 -143.5 30t-111 80.5t-72 117t-25.5 140.5q0 79 28 147.5t76 119t112 79.5t136 29q71 0 134.5 -29t111.5 -79.5t76 -119t28 -147.5q0 -74 -25.5 -140.5t-72 -117t-111 -80.5t-141.5 -30zM399 56q61 0 111.5 25.5t85.5 67t54.5 95t19.5 110.5
q0 59 -18.5 112.5t-53.5 94t-85 64.5t-114 24q-63 0 -114 -24t-86 -64.5t-54 -94t-19 -112.5q0 -57 20 -110.5t56 -95t86 -67t111 -25.5zM470 175l-77 145h-53v-145h-69v370h160q60 0 94 -26.5t34 -84.5q0 -59 -28 -83.5t-69 -26.5l95 -149h-87zM340 480v-98h88
q37 0 52.5 11.5t15.5 37.5t-14.5 37.5t-46.5 11.5h-95z" />
    <glyph glyph-name="uni2117" unicode="&#x28;P&#x29;" horiz-adv-x="797" 
d="M399 -14q-78 0 -143 30t-111.5 80.5t-72 117t-25.5 140.5q0 79 28 147.5t76 119t112 79.5t136 29q71 0 134.5 -29t111.5 -79.5t76 -119t28 -147.5q0 -74 -25.5 -140.5t-72 -117t-111 -80.5t-141.5 -30zM399 56q61 0 111.5 25.5t85.5 67t54.5 95t19.5 110.5
q0 59 -18.5 112.5t-53 94t-85 64.5t-114.5 24q-63 0 -114 -24t-86 -64.5t-54 -94t-19 -112.5q0 -57 20 -110.5t56 -95t86 -67t111 -25.5zM278 186v348h162q54 0 82.5 -27t28.5 -78q0 -48 -30 -77t-81 -29h-96v-137h-66zM344 473v-91h94q23 0 34.5 10t11.5 35t-11.5 35.5
t-34.5 10.5h-94z" />
    <glyph glyph-name=".notdef" horiz-adv-x="893" 
d="M70 -211v1028h753v-1028h-753zM351 57q13 51 42.5 75t67.5 36t81.5 20t84.5 29q75 38 109 92t34 132q0 73 -34.5 130.5t-91.5 97.5t-130 60.5t-151 20.5q-66 0 -128.5 -19.5t-119.5 -59.5l112 -147q39 23 77.5 34.5t80.5 11.5q24 0 59 -7t67 -21.5t55 -37.5t23 -56
q0 -11 -3 -21q-11 -41 -36.5 -60t-61.5 -29.5t-80 -20t-92 -31.5q-32 -15 -52 -33.5t-33.5 -41.5t-22.5 -50.5t-18 -60.5zM255 -161q18 0 33.5 7.5t27.5 20.5t18.5 30t6.5 36t-9.5 35t-25 27t-36 17t-42.5 6q-17 0 -33.5 -5t-29.5 -15.5t-21 -28t-8 -41.5q0 -20 9.5 -36
t25.5 -28t38 -18.5t46 -6.5z" />
    <glyph glyph-name=".null" horiz-adv-x="0" 
 />
    <glyph glyph-name="nonmarkingreturn" horiz-adv-x="333" 
 />
    <glyph glyph-name="glyph396" horiz-adv-x="0" 
 />
    <glyph glyph-name="glyph396" horiz-adv-x="0" 
 />
    <glyph glyph-name="uni0017" horiz-adv-x="310" 
 />
    <glyph glyph-name="space" unicode=" " horiz-adv-x="310" 
 />
    <glyph glyph-name="exclam" unicode="!" horiz-adv-x="304" 
d="M103 197q-12 131 -21 240t-9 187q0 48 16 77t64 29q24 0 39.5 -8t24 -22t11.5 -33t3 -41q0 -41 -1.5 -84t-5 -93.5t-9 -112t-12.5 -139.5h-100zM223 52q0 -62 -70 -62q-71 0 -71 62q0 59 71 59q70 0 70 -59z" />
    <glyph glyph-name="quotedbl" unicode="&#x22;" horiz-adv-x="425" 
d="M61 457l-18 260h96l-15 -260h-63zM303 457l-18 260h96l-15 -260h-63z" />
    <glyph glyph-name="numbersign" unicode="#" horiz-adv-x="594" 
d="M266 499h113l42 218h94l-42 -218h100l-14 -86h-102l-24 -124h99l-13 -86h-102l-38 -203h-93l38 203h-112l-38 -203h-88l38 203h-103l14 86h105l24 124h-104l14 86h105l42 218h87zM227 289h112l25 124h-113z" />
    <glyph glyph-name="dollar" unicode="$" horiz-adv-x="647" 
d="M297 0v43q-29 0 -60 5t-63.5 18.5t-67 36t-71.5 57.5l85 59q40 -37 87 -57t90 -21v183q-42 6 -80 19.5t-66 35.5t-44.5 52.5t-16.5 70.5q0 36 15 67t42 54.5t65 38t85 16.5v39h73v-38q82 -2 141 -35.5t92 -77.5l-76 -59q-16 19 -31.5 32.5t-33.5 22.5t-40.5 14t-51.5 7
v-173q55 -9 100.5 -22.5t77 -35t49 -54t17.5 -79.5q0 -45 -21 -78t-55.5 -54.5t-78 -32.5t-89.5 -11v-43h-73zM370 140q28 0 53.5 5t44.5 15t30 25.5t11 36.5q0 24 -11.5 41t-30.5 28t-44 17t-53 8v-176zM297 580q-51 -2 -78.5 -21t-27.5 -57q0 -19 9 -33t24 -23.5t34 -15
t39 -7.5v157z" />
    <glyph glyph-name="percent" unicode="%" horiz-adv-x="882" 
d="M227 364q-48 0 -82.5 15t-56 40t-32 58.5t-10.5 70.5t11.5 71t34 60t56.5 42t79 16q48 0 82.5 -15.5t56 -42t32 -60t10.5 -69.5q0 -37 -11.5 -70.5t-34.5 -59t-56.5 -41t-78.5 -15.5zM227 444q25 0 43 9.5t29.5 24.5t17 34t5.5 38t-5.5 38t-17 34.5t-29.5 25t-43 9.5
q-26 0 -44.5 -9.5t-30 -25t-17 -35t-5.5 -39.5t5.5 -38.5t17 -33t30 -23.5t44.5 -9zM125 0l532 717h93l-527 -717h-98zM655 -19q-48 0 -82.5 15t-56 40t-32 58.5t-10.5 70.5t11.5 71t34 60t56.5 42t79 16q48 0 82.5 -15.5t56 -42t32 -60t10.5 -69.5q0 -37 -11.5 -70.5
t-34.5 -59t-56.5 -41t-78.5 -15.5zM655 61q25 0 43 9.5t29.5 24.5t17 34t5.5 38t-5.5 38t-17 34.5t-29.5 25t-43 9.5q-26 0 -44.5 -9.5t-30 -25t-17 -35t-5.5 -39.5t5.5 -38.5t17 -33t30 -23.5t44.5 -9z" />
    <glyph glyph-name="ampersand" unicode="&#x26;" horiz-adv-x="811" 
d="M527 75q-45 -42 -99 -67t-123 -25q-59 0 -107.5 16t-83.5 45.5t-54.5 70.5t-19.5 92q0 57 30 104t93 68q-43 35 -59.5 73t-16.5 77q0 43 17.5 80t49.5 63.5t77 41.5t99 15q57 0 110 -21t101 -76l-94 -89q-53 65 -131 65q-17 0 -35 -4.5t-33 -14.5t-25 -25t-10 -37
q0 -25 10.5 -46.5t43.5 -47.5l247 -198q24 36 34 82t10 106h133q-1 -66 -20.5 -135t-61.5 -129l213 -159h-193zM300 101q42 0 72 14.5t56 37.5l-190 151q-32 -8 -50.5 -32t-18.5 -59q0 -25 10 -45.5t28 -35.5t42 -23t51 -8z" />
    <glyph glyph-name="quotesingle" unicode="'" horiz-adv-x="182" 
d="M61 457l-18 260h96l-15 -260h-63z" />
    <glyph glyph-name="parenleft" unicode="(" horiz-adv-x="438" 
d="M334 -173q-42 21 -82 60t-71 99.5t-50 143.5t-19 193q0 111 19 195t50.5 144.5t71.5 99.5t82 61l70 -79q-45 -19 -78 -57.5t-55 -93t-32.5 -123t-10.5 -147.5q0 -77 11.5 -144.5t34 -122.5t55.5 -94t75 -58z" />
    <glyph glyph-name="parenright" unicode=")" horiz-adv-x="438" 
d="M32 -96q42 19 75 58.5t56 94t35 122.5t12 144q0 77 -12 144.5t-34.5 122.5t-55 94t-74.5 59l70 80q41 -21 80.5 -60t71 -99.5t50.5 -145t19 -195.5q0 -109 -19 -193t-50.5 -145t-71 -100.5t-80.5 -58.5z" />
    <glyph glyph-name="asterisk" unicode="*" horiz-adv-x="513" 
d="M319 277l-64 141l-62 -142l-66 31l70 139l-151 -42l-16 75l153 30l-127 92l47 59l119 -101l-5 158h74l-5 -158l119 104l47 -59l-124 -95l154 -27l-18 -75l-151 39l74 -138z" />
    <glyph glyph-name="plus" unicode="+" 
d="M257 139v185h-186v85h186v183h84v-183h184v-85h-184v-185h-84z" />
    <glyph glyph-name="comma" unicode="," horiz-adv-x="231" 
d="M59 -56q17 13 28 31t12 36q-53 0 -53 56q0 54 70 54q34 0 52 -14.5t18 -49.5t-23 -73.5t-65 -66.5z" />
    <glyph glyph-name="hyphen" unicode="-" horiz-adv-x="397" 
d="M26 228v91h343v-91h-343z" />
    <glyph glyph-name="period" unicode="." horiz-adv-x="232" 
d="M188 51q0 -62 -71 -62q-73 0 -73 62q0 59 73 59q71 0 71 -59z" />
    <glyph glyph-name="slash" unicode="/" horiz-adv-x="400" 
d="M2 -25l286 767h110l-285 -767h-111z" />
    <glyph glyph-name="zero" unicode="0" horiz-adv-x="814" 
d="M408 -17q-94 0 -161 29.5t-110 80t-63 117t-20 140.5q0 73 22 141.5t66 121t110.5 84t155.5 31.5q93 0 160 -31.5t109.5 -83t62.5 -119t20 -139.5q0 -74 -22.5 -141t-66.5 -118.5t-110 -82t-153 -30.5zM408 105q57 0 98.5 21.5t69 56.5t40.5 80t13 92q0 46 -12.5 91
t-39.5 80t-69 57t-100 22q-59 0 -101.5 -22t-70 -58t-40.5 -81.5t-13 -93.5t12.5 -92.5t39.5 -78t70 -54t103 -20.5z" />
    <glyph glyph-name="one" unicode="1" horiz-adv-x="382" 
d="M179 0v583l-128 -59l-44 93l217 100h85v-717h-130z" />
    <glyph glyph-name="two" unicode="2" horiz-adv-x="730" 
d="M92 0l-53 109q88 48 172.5 99t163.5 109q23 17 47.5 36.5t44.5 42t32.5 47.5t12.5 54q0 32 -14 53t-36 33t-48 17t-51 5q-60 0 -114.5 -29t-88.5 -80l-97 81q21 38 54.5 66.5t74 47.5t85 28.5t88.5 9.5q50 0 100 -11.5t90 -37.5t65 -68.5t25 -104.5q0 -46 -15.5 -85
t-41 -72.5t-58 -62.5t-66.5 -54q-45 -32 -94 -62.5t-97 -54.5h414v-116h-595z" />
    <glyph glyph-name="three" unicode="3" horiz-adv-x="722" 
d="M129 194q21 -24 50 -41t62 -28.5t67 -16.5t65 -5q29 0 57 5.5t49.5 17.5t34.5 32t13 49q0 38 -22 59t-59.5 30.5t-87 11.5t-104.5 2v102q67 0 116.5 3.5t81.5 13.5t47.5 28.5t15.5 49.5q0 27 -13 45t-34 28.5t-47.5 15t-53.5 4.5q-69 0 -125 -23t-99 -80l-101 84
q27 37 64.5 65t81 46.5t91.5 27.5t96 9q51 0 100.5 -12t87.5 -38t61.5 -66.5t23.5 -98.5q0 -54 -28.5 -94.5t-88.5 -57.5q68 -12 107 -50.5t39 -115.5q0 -47 -22 -86t-61.5 -67.5t-94.5 -44t-121 -15.5q-41 0 -84 4.5t-85 16t-81.5 30.5t-73.5 48z" />
    <glyph glyph-name="four" unicode="4" horiz-adv-x="726" 
d="M470 0v138h-420l-41 85l474 494h115v-465h112v-114h-112v-138h-128zM470 534l-273 -282h273v282z" />
    <glyph glyph-name="five" unicode="5" horiz-adv-x="692" 
d="M235 613l-8 -169q26 18 64 31.5t98 13.5q48 0 95.5 -13.5t84.5 -43.5t60 -78t23 -116q0 -44 -16 -89t-52.5 -82t-95 -60.5t-142.5 -23.5q-54 0 -99 10t-83 27t-68.5 39.5t-54.5 47.5l91 100q50 -59 103 -81.5t118 -22.5q38 0 69.5 7.5t53.5 24t34 42.5t12 63q0 34 -13 60
t-36 44t-54 27t-67 9q-68 0 -105 -19.5t-57 -41.5l-95 22l13 376h504v-104h-377z" />
    <glyph glyph-name="six" unicode="6" horiz-adv-x="722" 
d="M577 517q-35 48 -80 68.5t-103 20.5q-62 0 -105.5 -21t-71 -57.5t-41 -85t-15.5 -102.5q35 51 98.5 81t148.5 30q52 0 101.5 -12.5t87.5 -39.5t61 -70t23 -104q0 -71 -29.5 -117.5t-74.5 -74.5t-99 -39t-102 -11q-92 0 -154.5 29t-101 79t-55.5 117t-17 143
q0 79 21.5 148t64.5 120t108 80.5t152 29.5q39 0 74 -4.5t67.5 -16t62 -31.5t57.5 -50zM558 230q0 60 -48 87t-133 27q-76 0 -123.5 -30t-64.5 -87q3 -25 17 -47.5t38 -39t57.5 -26.5t74.5 -10q39 0 72.5 7.5t57.5 23t38 39.5t14 56z" />
    <glyph glyph-name="seven" unicode="7" horiz-adv-x="623" 
d="M76 0q76 169 167.5 320t203.5 278h-415v119h557l26 -82q-62 -66 -117.5 -141.5t-105 -157t-92.5 -166.5t-79 -170h-145z" />
    <glyph glyph-name="eight" unicode="8" horiz-adv-x="704" 
d="M509 384q35 -3 65 -15t51.5 -33.5t34 -53t12.5 -73.5q0 -57 -23 -99.5t-65 -70.5t-101 -42t-131 -14t-131 14t-101 42t-65 70.5t-23 99.5q0 42 12.5 73.5t34 53t51 33t64.5 14.5q-55 10 -90 47.5t-35 97.5q0 58 25 96.5t65.5 61.5t91 33t101.5 10t101.5 -10t91 -33
t65.5 -61.5t25 -96.5q0 -60 -34.5 -97t-91.5 -47zM532 215q0 52 -43 80t-137 28t-137 -28t-43 -80q0 -58 46 -86t134 -28t134 28t46 86zM518 511q0 54 -45.5 78t-120.5 24t-120.5 -24t-45.5 -78q0 -28 13.5 -46.5t36.5 -29.5t53 -15.5t63 -4.5t63 4.5t53 15.5t36.5 29.5
t13.5 46.5z" />
    <glyph glyph-name="nine" unicode="9" horiz-adv-x="723" 
d="M133 158q29 -20 80 -36.5t117 -16.5q63 0 106.5 21.5t70.5 57.5t40 82.5t15 96.5q-35 -48 -99 -79t-155 -31q-50 0 -97.5 13t-85 41t-60.5 71.5t-23 104.5q0 68 31.5 115t78 76t99.5 42t97 13q93 0 155.5 -28.5t101 -78t54.5 -117t16 -144.5q0 -80 -21 -149t-64 -120
t-108 -80t-152 -29q-85 0 -149.5 21t-109.5 50zM535 477q-5 55 -49.5 91.5t-132.5 36.5q-81 0 -130 -34t-49 -94t46 -89t124 -29q85 0 134 33.5t57 84.5z" />
    <glyph glyph-name="colon" unicode=":" horiz-adv-x="288" 
d="M215 52q0 -61 -71 -61t-71 61q0 60 71 60t71 -60zM215 384q0 -61 -71 -61t-71 61q0 58 71 58t71 -58z" />
    <glyph glyph-name="semicolon" unicode=";" horiz-adv-x="291" 
d="M217 384q0 -32 -18.5 -46.5t-52.5 -14.5q-71 0 -71 61q0 58 71 58t71 -58zM88 -56q17 13 28 31t12 36q-53 0 -53 56q0 54 70 54q34 0 52 -14.5t18 -49.5t-23 -73.5t-65 -66.5z" />
    <glyph glyph-name="less" unicode="&#x3c;" 
d="M71 323v85l454 152v-92l-333 -102l333 -102v-92z" />
    <glyph glyph-name="equal" unicode="=" 
d="M71 420v85h454v-85h-454zM71 228v85h454v-85h-454z" />
    <glyph glyph-name="greater" unicode="&#x3e;" 
d="M71 172v92l332 102l-332 102v92l454 -152v-85z" />
    <glyph glyph-name="question" unicode="?" horiz-adv-x="606" 
d="M208 176q1 27 2 54.5t9 54.5q15 51 54.5 81.5t87.5 48.5q20 7 41 13.5t38 17t28 28t11 46.5q0 32 -17 52t-42.5 31.5t-56 15.5t-56.5 4q-60 0 -108 -20t-83 -71l-84 63q22 39 51.5 64.5t64.5 41t74.5 22t80.5 6.5q51 0 100.5 -10.5t88.5 -35t63.5 -65.5t24.5 -102
q0 -43 -16 -81t-52 -63q-20 -14 -43.5 -22t-47 -15.5t-44.5 -17.5t-36 -28q-20 -24 -25.5 -50.5t-5.5 -62.5h-102zM334 52q-2 -34 -20 -47.5t-50 -13.5q-29 0 -50.5 13t-21.5 47q0 33 22 46.5t51 13.5t49 -13.5t20 -45.5z" />
    <glyph glyph-name="at" unicode="@" horiz-adv-x="922" 
d="M681 -54q-48 -26 -100 -33.5t-104 -7.5q-84 0 -162 21t-138.5 65.5t-96.5 114.5t-36 169q0 94 33.5 165t90 118t131.5 70.5t159 23.5q71 0 145 -18t135 -57t99.5 -100.5t38.5 -148.5q0 -45 -11 -87.5t-33 -75.5t-56 -53t-79 -20q-32 0 -60 12t-45 41q-26 -26 -62 -39.5
t-75 -13.5q-42 0 -80.5 11.5t-68 35t-46.5 59.5t-17 84q0 44 15.5 79t42.5 59t63 37t77 13q77 0 129 -43l29 38l41 -19v-241q0 -23 17 -31.5t37 -8.5q28 0 46.5 13.5t30 35t16.5 49t5 55.5q0 69 -31 116.5t-79.5 77.5t-107.5 43.5t-115 13.5q-65 0 -123.5 -17t-103 -52.5
t-70.5 -90.5t-26 -131q0 -68 25 -121.5t70 -90.5t109 -56.5t142 -19.5q39 0 78 7t75 23zM562 352q-21 19 -49 29.5t-60 10.5q-25 0 -47 -6t-38.5 -19.5t-26.5 -34.5t-10 -51q0 -32 10.5 -53.5t27.5 -35t40 -19.5t49 -6q32 0 58.5 10t45.5 34v141z" />
    <glyph glyph-name="A" unicode="A" horiz-adv-x="895" 
d="M731 0l-94 188h-386l-94 -188h-147l372 717h125l378 -717h-154zM445 575l-145 -284h288z" />
    <glyph glyph-name="B" unicode="B" horiz-adv-x="764" 
d="M72 0v717h335q130 0 201 -48.5t71 -145.5q0 -52 -24 -89t-72 -50q28 -5 54 -17.5t45.5 -33.5t31 -50t11.5 -68q0 -103 -68.5 -159t-195.5 -56h-389zM202 324v-203h258q69 0 103.5 26.5t34.5 74.5q0 28 -10.5 47.5t-29 31.5t-43.5 17.5t-53 5.5h-260zM202 598v-184h231
q36 0 59 8t36.5 21.5t18.5 31t5 35.5q0 39 -27.5 63.5t-93.5 24.5h-229z" />
    <glyph glyph-name="C" unicode="C" horiz-adv-x="838" 
d="M791 110q-20 -26 -51.5 -49t-72.5 -40t-90.5 -27t-105.5 -10q-89 0 -166 25t-134 72.5t-90 117t-33 159.5q0 81 28 149t83.5 117.5t138 77t192.5 27.5q57 0 106 -10t88 -26t67.5 -36.5t43.5 -42.5l-82 -100q-35 46 -93.5 70t-143.5 24q-71 0 -125.5 -18t-92 -51t-57 -79
t-19.5 -102q0 -58 21 -104.5t59 -79t91 -50t118 -17.5q79 0 140 22.5t98 73.5z" />
    <glyph glyph-name="D" unicode="D" horiz-adv-x="862" 
d="M72 0v717h344q103 0 178.5 -27t124.5 -75t72.5 -113.5t23.5 -143.5t-28.5 -143.5t-80.5 -113t-126 -74.5t-164 -27h-344zM408 121q60 0 110 14.5t87 43.5t57.5 73t20.5 103q0 121 -70 182t-205 61h-206v-477h206z" />
    <glyph glyph-name="E" unicode="E" horiz-adv-x="715" 
d="M72 0v717h586v-118h-456v-179h406v-102h-406v-196h467v-122h-597z" />
    <glyph glyph-name="F" unicode="F" horiz-adv-x="688" 
d="M202 289v-289h-130v717h582v-119h-452v-199h403v-110h-403z" />
    <glyph glyph-name="G" unicode="G" horiz-adv-x="866" 
d="M671 281h-272v111h403v-274q-26 -39 -68 -65t-89.5 -41.5t-94.5 -22t-83 -6.5q-87 0 -163.5 22t-133.5 68t-89.5 116.5t-32.5 166.5q0 86 27 155t79.5 117.5t130.5 74.5t180 26q63 0 113 -7.5t90 -22.5t72 -37t58 -50l-84 -99q-18 20 -39.5 37.5t-51 30t-70.5 19.5t-99 7
q-133 0 -203.5 -64.5t-70.5 -185.5q0 -64 21.5 -111.5t60 -79t92.5 -47t119 -15.5q69 0 119.5 16t78.5 45v116z" />
    <glyph glyph-name="H" unicode="H" horiz-adv-x="818" 
d="M616 0v308h-414v-308h-130v717h130v-284h414v284h130v-717h-130z" />
    <glyph glyph-name="I" unicode="I" horiz-adv-x="283" 
d="M76 0v717h130v-717h-130z" />
    <glyph glyph-name="J" unicode="J" horiz-adv-x="608" 
d="M414 717h129v-460q0 -81 -20 -134t-56 -84t-85.5 -43.5t-109.5 -12.5q-33 0 -69.5 5t-72 17.5t-67 33t-53.5 50.5l97 90q22 -39 66.5 -60t92.5 -21q33 0 60 8t46.5 26t30.5 46.5t11 69.5v469z" />
    <glyph glyph-name="K" unicode="K" horiz-adv-x="810" 
d="M440 443l359 -443h-172l-283 369l-142 -109v-260h-130v717h130v-311l403 311h184z" />
    <glyph glyph-name="L" unicode="L" horiz-adv-x="671" 
d="M72 0v717h130v-596h445v-121h-575z" />
    <glyph glyph-name="M" unicode="M" horiz-adv-x="990" 
d="M794 0v506l-268 -506h-61l-272 506v-506h-123v717h153l274 -525l274 525h148v-717h-125z" />
    <glyph glyph-name="N" unicode="N" horiz-adv-x="842" 
d="M646 0l-446 504v-504h-128v717h132l441 -523v523h127v-717h-126z" />
    <glyph glyph-name="O" unicode="O" horiz-adv-x="941" 
d="M893 349q0 -84 -31.5 -151.5t-88 -115t-134.5 -73.5t-171 -26q-89 0 -165.5 26t-133 73.5t-89 115t-32.5 151.5t30 153.5t85.5 120t132.5 78.5t172 28q93 0 171 -28t134.5 -78.5t88 -120t31.5 -153.5zM757 349q0 59 -21.5 106.5t-60 81t-91.5 51.5t-116 18
q-62 0 -115 -18t-91.5 -51.5t-60 -81t-21.5 -106.5t22.5 -104.5t61.5 -77t91.5 -48t112.5 -16.5q63 0 116 16.5t91.5 48t60 77t21.5 104.5z" />
    <glyph glyph-name="P" unicode="P" horiz-adv-x="734" 
d="M72 0v717h358q130 0 198.5 -55t68.5 -180q0 -127 -67.5 -185.5t-199.5 -58.5h-220v-238h-138zM419 353q73 0 113.5 28t40.5 97t-41 94.5t-113 25.5h-209v-245h209z" />
    <glyph glyph-name="Q" unicode="Q" horiz-adv-x="939" 
d="M681 26q-92 -43 -213 -43q-89 0 -165.5 26t-133 73.5t-89 115t-32.5 151.5t30 153.5t85.5 120t132.5 78.5t172 28q93 0 171 -28t134.5 -78.5t88 -120t31.5 -153.5q0 -78 -26.5 -140t-74.5 -110l116 -110l-89 -92zM756 349q0 58 -21.5 105.5t-59.5 81t-91 51.5t-116 18
q-62 0 -114.5 -18t-91 -51.5t-60 -81t-21.5 -105.5q0 -59 22.5 -104.5t61 -77t91 -47.5t112.5 -16q62 0 115 16t91.5 47.5t60 77t21.5 104.5z" />
    <glyph glyph-name="R" unicode="R" horiz-adv-x="808" 
d="M640 0l-197 250h-241v-250h-130v717h389q74 0 124 -18t80 -49.5t42.5 -74t12.5 -91.5q0 -75 -40.5 -130.5t-115.5 -72.5l234 -281h-158zM202 598v-240h250q28 0 53 7t44.5 21.5t31 37.5t11.5 56q0 32 -10.5 54.5t-29.5 36.5t-45 20.5t-56 6.5h-249z" />
    <glyph glyph-name="S" unicode="S" horiz-adv-x="701" 
d="M562 540q-45 38 -101 56t-114 18q-22 0 -49.5 -3.5t-52 -13.5t-41.5 -28t-17 -47q0 -28 14.5 -45t39 -27.5t56 -17t64.5 -12.5q57 -10 111 -23.5t95.5 -37.5t66.5 -62t25 -98q0 -65 -28.5 -106.5t-73.5 -65.5t-99 -33.5t-105 -9.5q-45 0 -91 7t-89 22.5t-80 41.5t-64 65
l94 87q20 -30 46.5 -50.5t57 -33t64.5 -18.5t68 -6q25 0 55.5 3t56.5 13t43.5 29.5t17.5 51.5t-20.5 51t-54 31t-76 20t-87.5 16.5t-87.5 21.5t-76 35t-54 56t-20.5 85q0 60 27.5 101.5t70 67t94 37t100.5 11.5q75 0 150.5 -17t136.5 -65z" />
    <glyph glyph-name="T" unicode="T" horiz-adv-x="707" 
d="M288 0v598h-270v119h670v-119h-270v-598h-130z" />
    <glyph glyph-name="U" unicode="U" horiz-adv-x="831" 
d="M636 717h130v-441q0 -83 -30 -139t-79 -90.5t-112 -49t-130 -14.5t-130 14.5t-112 49t-79 90.5t-30 139v441h129v-436q0 -91 59.5 -134.5t162.5 -43.5t162 43.5t59 134.5v436z" />
    <glyph glyph-name="V" unicode="V" horiz-adv-x="803" 
d="M365 0l-355 717h150l247 -518l242 518h143l-350 -717h-77z" />
    <glyph glyph-name="W" unicode="W" horiz-adv-x="1233" 
d="M833 0l-211 547l-214 -547h-106l-288 717h154l191 -515l201 515h132l194 -515l185 515h147l-290 -717h-95z" />
    <glyph glyph-name="X" unicode="X" horiz-adv-x="852" 
d="M684 0l-258 289l-258 -289h-161l330 368l-324 349h170l248 -273l245 273h161l-322 -353l330 -364h-161z" />
    <glyph glyph-name="Y" unicode="Y" horiz-adv-x="844" 
d="M360 0v289l-353 428h168l252 -314l250 314h160l-348 -429v-288h-129z" />
    <glyph glyph-name="Z" unicode="Z" horiz-adv-x="718" 
d="M61 0l-25 102l445 492h-423l5 123h581l33 -89l-442 -504h432v-124h-606z" />
    <glyph glyph-name="bracketleft" unicode="[" horiz-adv-x="398" 
d="M122 -210v1040h254l-15 -113h-113v-815h124l-15 -112h-235z" />
    <glyph glyph-name="backslash" unicode="\" horiz-adv-x="405" 
d="M290 -25l-288 766h113l287 -766h-112z" />
    <glyph glyph-name="bracketright" unicode="]" horiz-adv-x="411" 
d="M22 -210l15 112h125v815h-136l15 113h248v-1040h-267z" />
    <glyph glyph-name="asciicircum" unicode="^" horiz-adv-x="538" 
d="M442 379l-175 259l-173 -259l-76 32l218 306h64l218 -307z" />
    <glyph glyph-name="underscore" unicode="_" horiz-adv-x="671" 
d="M-1 -91v73h674v-73h-674z" />
    <glyph glyph-name="grave" unicode="`" horiz-adv-x="433" 
d="M69 706l50 71l243 -170l-29 -44z" />
    <glyph glyph-name="a" unicode="a" horiz-adv-x="674" 
d="M532 0l-68 136h-263l-68 -136h-123l278 534h95l280 -534h-131zM238 214h189l-93 185z" />
    <glyph glyph-name="b" unicode="b" horiz-adv-x="601" 
d="M186 432v-119h156q42 0 58 16.5t16 43.5q0 59 -75 59h-155zM186 237v-132h175q88 0 88 67q0 37 -24 51t-62 14h-177zM72 0v534h275q88 0 134.5 -37t46.5 -100q0 -81 -66 -109q19 -4 37 -13t32 -24t22.5 -36t8.5 -50q0 -84 -54 -124.5t-142 -40.5h-294z" />
    <glyph glyph-name="c" unicode="c" horiz-adv-x="655" 
d="M610 83q-13 -17 -35 -34t-54 -31t-73 -23t-92 -9q-66 0 -122.5 19t-98 55t-64.5 87t-23 114q0 62 21 114t62 89.5t101.5 58.5t140.5 21q46 0 85.5 -8.5t70 -22t52 -30.5t32.5 -33l-74 -78q-28 33 -70 49.5t-103 16.5q-49 0 -86.5 -13.5t-63.5 -37t-39.5 -55.5t-13.5 -69
q0 -39 15.5 -71t43 -54t66.5 -34t86 -12q61 0 99 20.5t66 53.5z" />
    <glyph glyph-name="d" unicode="d" horiz-adv-x="672" 
d="M318 106q42 0 77 11t60.5 31.5t39.5 50t14 66.5q0 75 -47 120t-141 45h-134v-324h131zM72 0v534h253q71 0 127 -18.5t94.5 -53t59 -84t20.5 -112.5q0 -59 -22 -108t-61.5 -84t-94.5 -54.5t-122 -19.5h-254z" />
    <glyph glyph-name="e" unicode="e" horiz-adv-x="563" 
d="M72 0v534h438v-103h-324v-115h274v-80h-274v-131h331v-105h-445z" />
    <glyph glyph-name="f" unicode="f" horiz-adv-x="542" 
d="M189 210v-210h-117v534h436v-106h-319v-126h277v-92h-277z" />
    <glyph glyph-name="g" unicode="g" horiz-adv-x="679" 
d="M507 212h-204v79h305v-203q-17 -26 -44.5 -45t-61 -32t-70.5 -19t-74 -6q-69 0 -126 19t-98 54.5t-63.5 87.5t-22.5 118q0 61 20 112t59.5 88t97 58t132.5 21q102 0 165 -27t92 -68l-67 -75q-24 32 -67.5 49.5t-116.5 17.5q-51 0 -89 -13.5t-63.5 -37.5t-38 -56
t-12.5 -69q0 -44 16 -78t43.5 -56.5t64.5 -34t79 -11.5q48 0 86.5 12.5t57.5 32.5v82z" />
    <glyph glyph-name="h" unicode="h" horiz-adv-x="648" 
d="M576 0h-115v224h-273v-224h-116v534h116v-206h273v206h115v-534z" />
    <glyph glyph-name="i" unicode="i" horiz-adv-x="266" 
d="M76 0v534h114v-534h-114z" />
    <glyph glyph-name="j" unicode="j" horiz-adv-x="487" 
d="M308 534h115v-341q0 -60 -16 -100t-43.5 -64t-65 -33.5t-80.5 -9.5q-69 0 -124 26.5t-84 69.5l81 77q19 -32 49.5 -52t69.5 -20q45 0 71.5 22.5t26.5 80.5v344z" />
    <glyph glyph-name="k" unicode="k" horiz-adv-x="631" 
d="M355 331l266 -331h-141l-204 265l-88 -66v-199h-116v534h116v-222l279 222h143z" />
    <glyph glyph-name="l" unicode="l" horiz-adv-x="526" 
d="M72 0v534h117v-426h314v-108h-431z" />
    <glyph glyph-name="m" unicode="m" horiz-adv-x="770" 
d="M592 0v334l-174 -334h-67l-173 334v-334h-108v534h121l194 -372l192 372h122v-534h-107z" />
    <glyph glyph-name="n" unicode="n" horiz-adv-x="664" 
d="M497 0l-311 347v-347h-114v534h107l303 -362v362h112v-534h-97z" />
    <glyph glyph-name="o" unicode="o" horiz-adv-x="722" 
d="M673 260q0 -62 -23 -112.5t-64.5 -86.5t-99 -55.5t-126.5 -19.5q-68 0 -125.5 19.5t-99 55.5t-64.5 86.5t-23 112.5t22.5 114t64 90t99 59t126.5 21t126.5 -21t99 -59t64.5 -90t23 -114zM558 260q0 39 -13.5 71.5t-39 55.5t-62.5 36t-83 13q-94 0 -145 -49t-51 -127
q0 -79 51 -123t145 -44t146 44t52 123z" />
    <glyph glyph-name="p" unicode="p" horiz-adv-x="588" 
d="M186 428v-160h151q22 0 40.5 3.5t32.5 12.5t22 25t8 42q0 24 -7 39t-20 23.5t-30 11.5t-38 3h-159zM72 0v534h272q100 0 154 -42t54 -136t-53 -138.5t-153 -44.5h-160v-173h-114z" />
    <glyph glyph-name="q" unicode="q" horiz-adv-x="715" 
d="M673 260q0 -55 -18.5 -100.5t-50.5 -80.5l80 -77l-82 -84l-101 94q-67 -26 -141 -26q-68 0 -125.5 19.5t-99 55.5t-64.5 86.5t-23 112.5t22.5 114t64 90t99 59t126.5 21t126.5 -21t99 -59t64.5 -90t23 -114zM558 260q0 39 -13.5 71.5t-39 55.5t-62.5 36t-83 13
q-94 0 -145 -49t-51 -127q0 -79 51 -123t145 -44t146 44t52 123z" />
    <glyph glyph-name="r" unicode="r" horiz-adv-x="635" 
d="M186 431v-161h170q42 0 66 21.5t24 59.5t-22.5 59t-67.5 21h-170zM484 0l-142 182h-156v-182h-114v534h293q97 0 145 -48.5t48 -127.5q0 -57 -28 -94.5t-79 -55.5l173 -208h-140z" />
    <glyph glyph-name="s" unicode="s" horiz-adv-x="550" 
d="M433 389q-31 31 -75 46.5t-89 15.5q-14 0 -33 -3.5t-36 -11t-29 -18.5t-12 -27q0 -29 26 -42.5t64.5 -22t83.5 -16t83.5 -24t64.5 -47t26 -84.5q0 -50 -20 -82.5t-52.5 -51.5t-74.5 -26.5t-87 -7.5q-75 0 -140.5 24t-104.5 80l82 75q23 -38 68 -62t106 -24q17 0 37 3
t37.5 10.5t29 20t11.5 30.5q0 30 -25.5 43.5t-64 22t-83.5 16t-83.5 24.5t-64 48t-25.5 86q0 43 19 73.5t49.5 49.5t70 28t80.5 9q60 0 118.5 -14.5t106.5 -52.5z" />
    <glyph glyph-name="t" unicode="t" horiz-adv-x="532" 
d="M208 0v429h-190v105h495v-105h-188v-429h-117z" />
    <glyph glyph-name="u" unicode="u" horiz-adv-x="653" 
d="M473 534h116v-333q0 -62 -21 -103t-57 -66t-83.5 -35.5t-99.5 -10.5q-53 0 -101 10.5t-84 35.5t-57.5 66t-21.5 103v333h115v-315q0 -66 38.5 -96t110.5 -30q69 0 107 30t38 96v315z" />
    <glyph glyph-name="v" unicode="v" horiz-adv-x="611" 
d="M271 0l-261 534h127l170 -364l171 364h123l-261 -534h-69z" />
    <glyph glyph-name="w" unicode="w" horiz-adv-x="903" 
d="M602 0l-146 378l-148 -378h-81l-213 534h128l128 -357l137 357h102l134 -357l123 357h122l-211 -534h-75z" />
    <glyph glyph-name="x" unicode="x" horiz-adv-x="685" 
d="M523 0l-182 199l-185 -199h-149l263 276l-258 258h157l176 -188l172 188h148l-250 -259l262 -275h-154z" />
    <glyph glyph-name="y" unicode="y" horiz-adv-x="646" 
d="M271 0v213l-264 321h143l178 -224l176 224h134l-253 -321v-213h-114z" />
    <glyph glyph-name="z" unicode="z" horiz-adv-x="569" 
d="M54 0l-18 87l327 348h-313l5 99h443l29 -75l-313 -350h297v-109h-457z" />
    <glyph glyph-name="braceleft" unicode="{" horiz-adv-x="409" 
d="M18 333q40 0 66 8t41 26t20.5 46.5t5.5 70.5v157q0 38 7.5 71t27 58t52.5 39t85 14h53v-88h-53q-44 0 -60 -21.5t-16 -72.5v-155q0 -30 -4.5 -60t-16.5 -55.5t-33 -43.5t-53 -24q32 -6 53 -24t33 -43.5t16.5 -55.5t4.5 -60v-155q0 -51 16 -72.5t60 -21.5h53v-88h-53
q-52 0 -85 14t-52.5 39t-27 58t-7.5 71v157q0 42 -5.5 70.5t-20.5 46.5t-41 26t-66 8v60z" />
    <glyph glyph-name="bar" unicode="|" horiz-adv-x="300" 
d="M102 -177v970h96v-970h-96z" />
    <glyph glyph-name="braceright" unicode="}" horiz-adv-x="414" 
d="M396 273q-41 0 -66.5 -8t-40.5 -26t-20.5 -46.5t-5.5 -70.5v-157q0 -38 -7.5 -71t-27 -58t-52.5 -39t-85 -14h-53v88h53q44 0 60 21.5t16 72.5v155q0 30 4.5 60t16.5 55.5t33 43.5t53 24q-32 6 -53 24t-33 43.5t-16.5 55.5t-4.5 60v155q0 51 -16 72.5t-60 21.5h-53v88h53
q52 0 85 -14t52.5 -39t27 -58t7.5 -71v-157q0 -42 5.5 -70.5t20.5 -46.5t40.5 -26t66.5 -8v-60z" />
    <glyph glyph-name="asciitilde" unicode="~" 
d="M525 352q-20 -35 -50.5 -49.5t-64.5 -14.5q-40 0 -67 11.5t-50 25t-47.5 25t-59.5 11.5q-26 0 -45 -8.5t-33 -20.5t-23 -25.5t-14 -22.5v96q20 35 50.5 49.5t64.5 14.5q39 0 65 -11.5t49 -25t48 -25t62 -11.5q25 0 44 8.5t33 20.5t23.5 25.5t14.5 22.5v-96z" />
    <glyph glyph-name="uni00A0" unicode="&#xa0;" horiz-adv-x="310" 
 />
    <glyph glyph-name="exclamdown" unicode="&#xa1;" horiz-adv-x="304" 
d="M201.006 523.012q12 -130.992 20.999 -239.985q9 -108.993 9 -186.988q0 -47.9971 -15.999 -76.9951t-63.9961 -28.998q-23.999 0 -39.498 7.99902q-15.499 8 -23.998 21.999q-8.5 13.999 -11.5 32.998q-3 18.998 -3 40.9971q0 40.998 1.5 83.9951t5 93.4941
t8.99902 111.993q5.5 61.4961 12.5 139.491h99.9932zM81.0137 668.003q0 61.9961 69.9961 61.9961q70.9951 0 70.9951 -61.9961q0 -58.9961 -70.9951 -58.9961q-69.9961 0 -69.9961 58.9961z" />
    <glyph glyph-name="cent" unicode="&#xa2;" horiz-adv-x="590" 
d="M284 0v86q-53 6 -97 26.5t-76 53.5t-50 78t-18 100q0 43 16 85.5t46.5 78t75.5 60t103 32.5v117h75v-114q18 -1 41 -4t48.5 -11t53 -21.5t53.5 -35.5l-59 -87q-40 36 -76 48.5t-61 13.5v-324q32 2 65 16t65 45l70 -66q-22 -24 -48 -40.5t-52 -27t-52 -16t-48 -7.5v-86
h-75zM284 499q-60 -8 -95.5 -50.5t-35.5 -105.5q0 -69 35.5 -108t95.5 -47v311z" />
    <glyph glyph-name="sterling" unicode="&#xa3;" horiz-adv-x="622" 
d="M29 0v121h20q42 0 65 29.5t23 89.5v103h-58v101h58v68q0 40 12 79t39 70t70.5 49.5t106.5 18.5q54 0 90.5 -10t69.5 -34l-65 -103q-13 14 -36.5 22.5t-52.5 8.5q-61 0 -86.5 -22t-25.5 -70v-77h175v-101h-175v-102q0 -52 -10 -80t-29 -40h365v-121h-556z" />
    <glyph glyph-name="currency" unicode="&#xa4;" horiz-adv-x="537" 
d="M452 93l-97 100h-174l-97 -100l-49 49l97 98v179l-97 98l49 50l97 -99h174l97 99l49 -50l-98 -98v-179l98 -98zM345 408h-154v-157h154v157z" />
    <glyph glyph-name="yen" unicode="&#xa5;" horiz-adv-x="746" 
d="M465 328l-30 -44v-42h198v-85h-198v-157h-114v157h-202v85h202v48l-29 38h-173v85h112l-222 304h150l221 -332l215 332h142l-216 -304h112v-85h-168z" />
    <glyph glyph-name="brokenbar" unicode="&#xa6;" horiz-adv-x="300" 
d="M102 403v390h96v-390h-96zM102 -177v390h96v-390h-96z" />
    <glyph glyph-name="section" unicode="&#xa7;" horiz-adv-x="565" 
d="M107 151q25 -29 70 -47.5t99 -18.5q20 0 40 2.5t36.5 9t26.5 17t10 27.5q0 26 -19 35.5t-50 11.5q-16 1 -42 3.5t-55 8.5t-58 17t-52.5 28.5t-38.5 43.5t-15 63q0 23 8 42.5t21 35t29 26.5t33 17q-34 13 -56.5 38.5t-22.5 70.5q0 37 19.5 64.5t51 46t72.5 27.5t83 9
q29 0 59.5 -4.5t58 -12.5t51 -20t38.5 -27l-66 -96q-26 23 -64.5 36t-83.5 13q-19 0 -37 -3.5t-32 -10.5t-22.5 -16.5t-8.5 -22.5q0 -24 20 -38t55 -16q27 -2 70 -5t84.5 -16.5t71.5 -41.5t30 -79t-28 -84t-73 -50q18 -5 34.5 -13t29 -20t19.5 -30t7 -44q0 -36 -16 -63.5
t-46 -46.5t-72 -28.5t-94 -9.5q-38 0 -76 4.5t-71.5 13.5t-60 24t-40.5 36zM411 357q0 18 -10 30t-27.5 19t-40 9.5t-47.5 2.5q-20 0 -40 -4t-37 -12t-27.5 -20.5t-10.5 -29.5q0 -32 34 -48t88 -16q23 0 44.5 4.5t38 13t26 21.5t9.5 30z" />
    <glyph glyph-name="dieresis" unicode="&#xa8;" horiz-adv-x="509" 
d="M131 603q-29 0 -46.5 15t-17.5 47t17.5 47.5t46.5 15.5q26 0 43 -15.5t17 -47.5t-17 -47t-43 -15zM381 603q-29 0 -46 15t-17 47t17 47.5t46 15.5q61 0 61 -63q0 -62 -61 -62z" />
    <glyph glyph-name="ordfeminine" unicode="&#xaa;" horiz-adv-x="431" 
d="M323 300l-38 75h-144l-38 -75h-68l153 294h53l154 -294h-72zM161 418h104l-51 101z" />
    <glyph glyph-name="guillemotleft" unicode="&#xab;" horiz-adv-x="544" 
d="M25 282v74l181 134l40 -68l-147 -103l147 -102l-40 -68zM297 282v74l181 134l40 -68l-147 -103l147 -102l-40 -68z" />
    <glyph glyph-name="logicalnot" unicode="&#xac;" horiz-adv-x="584" 
d="M412 82v150h-341v100h441v-250h-100z" />
    <glyph glyph-name="macron" unicode="&#xaf;" horiz-adv-x="484" 
d="M72 619v73h339v-73h-339z" />
    <glyph glyph-name="degree" unicode="&#xb0;" horiz-adv-x="498" 
d="M467 538q0 -40 -16 -76t-44.5 -63t-69.5 -43t-90 -16q-48 0 -87.5 16t-68.5 43t-45 63t-16 76q0 43 17.5 79.5t47 63.5t69 42.5t83.5 15.5q46 0 86 -15.5t70 -42.5t47 -63.5t17 -79.5zM375 538q0 54 -34 82.5t-94 28.5t-92.5 -28.5t-32.5 -82.5t34 -84t91 -30t92.5 30
t35.5 84z" />
    <glyph glyph-name="plusminus" unicode="&#xb1;" 
d="M257 139v185h-186v85h186v183h84v-183h184v-85h-184v-185h-84zM71 25v85h454v-85h-454z" />
    <glyph glyph-name="uni00B2" unicode="&#xb2;" horiz-adv-x="401" 
d="M68 373l-35 70q42 23 82 49t78 52q21 14 42.5 33t21.5 43q0 11 -5.5 18t-14.5 11t-19 5.5t-19 1.5q-27 0 -50 -13t-40 -35l-64 53q23 38 66.5 57t88.5 19q25 0 51 -5.5t46.5 -18.5t33.5 -34t13 -52q0 -32 -16 -59.5t-40 -49.5t-51.5 -39.5t-49.5 -29.5h178v-76h-297z" />
    <glyph glyph-name="uni00B3" unicode="&#xb3;" horiz-adv-x="397" 
d="M90 487q9 -12 22 -20t29 -13.5t32 -8t31 -2.5q58 0 58 36q0 14 -9 22t-24.5 12.5t-37.5 5.5t-48 1v66q66 1 91 9t25 29q0 18 -19.5 23.5t-39.5 5.5q-30 0 -54.5 -10t-44.5 -34l-66 54q28 38 73.5 56t96.5 18q26 0 51.5 -6t45 -19t31.5 -33.5t12 -49.5q0 -25 -12.5 -44.5
t-39.5 -30.5q31 -8 49 -26t18 -56q0 -24 -11 -44t-31.5 -34t-48.5 -22t-62 -8q-42 0 -86.5 10.5t-79.5 39.5z" />
    <glyph glyph-name="acute" unicode="&#xb4;" horiz-adv-x="433" 
d="M98 563l-29 44l243 170l50 -71z" />
    <glyph glyph-name="paragraph" unicode="&#xb6;" horiz-adv-x="659" 
d="M465 -96v715h-126v-715h-111v484q-97 3 -150.5 44.5t-53.5 116.5q0 81 56.5 124.5t171.5 43.5h366l30 -61l-71 -30v-722h-112z" />
    <glyph glyph-name="periodcentered" unicode="&#xb7;" horiz-adv-x="232" 
d="M188 361q0 -62 -71 -62q-73 0 -73 62q0 59 73 59q71 0 71 -59z" />
    <glyph glyph-name="cedilla" unicode="&#xb8;" horiz-adv-x="282" 
d="M90 -210q36 31 38 72q-53 0 -53 53q0 26 18 38.5t51 12.5q37 0 52.5 -17t15.5 -48q0 -35 -23 -69.5t-61 -63.5z" />
    <glyph glyph-name="uni00B9" unicode="&#xb9;" horiz-adv-x="242" 
d="M107 373v272l-61 -21l-29 61l119 46h56v-358h-85z" />
    <glyph glyph-name="ordmasculine" unicode="&#xba;" horiz-adv-x="457" 
d="M400 443q0 -34 -12.5 -62t-35.5 -47.5t-54.5 -30.5t-69.5 -11t-69.5 11t-54 30.5t-35.5 47.5t-13 62t12.5 62.5t35 49.5t54.5 32.5t70 11.5t69.5 -11.5t54.5 -32.5t35.5 -49.5t12.5 -62.5zM337 443q0 43 -29 70t-80 27q-52 0 -80 -27t-28 -70q0 -45 28.5 -68.5
t79.5 -23.5t80 23.5t29 68.5z" />
    <glyph glyph-name="guillemotright" unicode="&#xbb;" horiz-adv-x="544" 
d="M65 149l-40 68l147 102l-147 103l40 68l181 -134v-74zM337 149l-40 68l147 102l-147 103l40 68l181 -134v-74z" />
    <glyph glyph-name="onequarter" unicode="&#xbc;" horiz-adv-x="769" 
d="M136 373v272l-61 -21l-29 61l119 46h56v-358h-85zM47 0l532 717h93l-527 -717h-98zM581 -10v63h-191l-27 55l228 240h74v-221h58v-74h-58v-63h-84zM581 228l-95 -101h95v101z" />
    <glyph glyph-name="onehalf" unicode="&#xbd;" horiz-adv-x="806" 
d="M146 373v272l-61 -21l-29 61l119 46h56v-358h-85zM47 0l532 717h93l-527 -717h-98zM463 -10l-35 70q42 23 82 49t78 52q21 14 42.5 33t21.5 43q0 11 -5.5 18t-14.5 11t-19 5.5t-19 1.5q-27 0 -50 -13t-40 -35l-64 53q23 38 66.5 57t88.5 19q25 0 51 -5.5t46.5 -18.5
t33.5 -34t13 -52q0 -32 -16 -59.5t-40 -49.5t-51.5 -39.5t-49.5 -29.5h178v-76h-297z" />
    <glyph glyph-name="threequarters" unicode="&#xbe;" horiz-adv-x="816" 
d="M101 487q9 -12 22 -20t29 -13.5t32 -8t31 -2.5q58 0 58 36q0 14 -9 22t-24.5 12.5t-37.5 5.5t-48 1v66q66 1 91 9t25 29q0 18 -19.5 23.5t-39.5 5.5q-30 0 -54.5 -10t-44.5 -34l-66 54q28 38 73.5 56t96.5 18q26 0 51.5 -6t45 -19t31.5 -33.5t12 -49.5q0 -25 -12.5 -44.5
t-39.5 -30.5q31 -8 49 -26t18 -56q0 -24 -11 -44t-31.5 -34t-48.5 -22t-62 -8q-42 0 -86.5 10.5t-79.5 39.5zM94 0l532 717h93l-527 -717h-98zM628 -10v63h-191l-27 55l228 240h74v-221h58v-74h-58v-63h-84zM628 228l-95 -101h95v101z" />
    <glyph glyph-name="questiondown" unicode="&#xbf;" horiz-adv-x="606" 
d="M398.013 544.011q-1 -26.998 -2 -54.4971q-1 -27.498 -8.99902 -54.4961q-14.999 -50.9971 -54.4971 -81.4951q-39.4971 -30.498 -87.4941 -48.4971q-19.999 -7 -40.998 -13.499q-20.999 -6.5 -37.9971 -16.999q-16.999 -10.5 -27.999 -27.998
q-10.999 -17.499 -10.999 -46.498q0 -31.998 16.999 -51.9961q16.999 -19.999 42.4971 -31.498q25.499 -11.5 55.9971 -15.499q30.498 -4 56.4961 -4q59.9961 0 107.993 19.999q47.9971 19.998 82.9951 70.9951l83.9951 -62.9961q-21.999 -38.9971 -51.4971 -64.4961
q-29.498 -25.498 -64.4961 -40.9971t-74.4951 -21.999q-39.498 -6.49902 -80.4951 -6.49902q-50.9971 0 -100.494 10.499t-88.4941 34.998q-38.998 24.498 -63.4961 65.4961q-24.499 40.9971 -24.499 101.993q0 42.998 15.999 80.9951q15.999 37.998 51.9971 62.9961
q19.999 13.999 43.4971 21.999q23.499 7.99902 46.9971 15.499q23.499 7.49902 44.498 17.499q20.998 9.99902 35.9971 27.998q19.999 23.999 25.499 50.4971q5.49902 26.498 5.49902 62.4961h101.994zM272.021 668.003q2 33.998 19.999 47.4971
q17.998 13.499 49.9961 13.499q28.999 0 50.4971 -12.999q21.499 -12.999 21.499 -46.9971q0 -32.998 -21.999 -46.4971q-21.998 -13.499 -50.9961 -13.499q-28.999 0 -48.9971 13.499q-19.999 13.499 -19.999 45.4971z" />
    <glyph glyph-name="Agrave" unicode="&#xc0;" horiz-adv-x="895" 
d="M731 0l-94 188h-386l-94 -188h-147l372 717h125l378 -717h-154zM445 575l-145 -284h288zM271 889l50 71l243 -170l-29 -44z" />
    <glyph glyph-name="Aacute" unicode="&#xc1;" horiz-adv-x="895" 
d="M731 0l-94 188h-386l-94 -188h-147l372 717h125l378 -717h-154zM445 575l-145 -284h288zM360 746l-29 44l243 170l50 -71z" />
    <glyph glyph-name="Acircumflex" unicode="&#xc2;" horiz-adv-x="895" 
d="M731 0l-94 188h-386l-94 -188h-147l372 717h125l378 -717h-154zM445 575l-145 -284h288zM583 746l-137 108l-137 -108l-43 33l145 151h73l145 -151z" />
    <glyph glyph-name="Atilde" unicode="&#xc3;" horiz-adv-x="895" 
d="M731 0l-94 188h-386l-94 -188h-147l372 717h125l378 -717h-154zM445 575l-145 -284h288zM647 847q-15 -37 -41.5 -58.5t-71.5 -21.5q-24 0 -45.5 8.5t-42.5 18t-42.5 18t-45.5 8.5q-21 0 -32.5 -9.5t-18.5 -31.5l-59 34q16 39 43 59.5t70 20.5q24 0 45.5 -8.5t43 -18
t43 -18t44.5 -8.5q21 0 32.5 9.5t18.5 31.5z" />
    <glyph glyph-name="Adieresis" unicode="&#xc4;" horiz-adv-x="895" 
d="M731 0l-94 188h-386l-94 -188h-147l372 717h125l378 -717h-154zM445 575l-145 -284h288zM324 786q-29 0 -46.5 15t-17.5 47t17.5 47.5t46.5 15.5q26 0 43 -15.5t17 -47.5t-17 -47t-43 -15zM574 786q-29 0 -46 15t-17 47t17 47.5t46 15.5q61 0 61 -63q0 -62 -61 -62z" />
    <glyph glyph-name="Aring" unicode="&#xc5;" horiz-adv-x="895" 
d="M731 0l-94 188h-386l-94 -188h-147l372 717h125l378 -717h-154zM445 575l-145 -284h288zM572 854q0 -24 -9.5 -44t-26 -34t-39 -22t-49.5 -8q-54 0 -89.5 30t-35.5 78q0 54 35.5 80t89.5 26q25 0 47.5 -6.5t39.5 -19.5t27 -33t10 -47zM519 854q0 27 -19.5 40t-51.5 13
t-51 -13t-19 -40q0 -26 19 -39.5t51 -13.5t51.5 13.5t19.5 39.5z" />
    <glyph glyph-name="AE" unicode="&#xc6;" horiz-adv-x="1159" 
d="M533 0v186h-279l-97 -186h-147l378 717h714v-119h-438v-181h389v-96h-389v-200h449v-121h-580zM533 598h-64l-163 -309h227v309z" />
    <glyph glyph-name="Ccedilla" unicode="&#xc7;" horiz-adv-x="838" 
d="M791 110q-20 -26 -51.5 -49t-72.5 -40t-90.5 -27t-105.5 -10q-89 0 -166 25t-134 72.5t-90 117t-33 159.5q0 81 28 149t83.5 117.5t138 77t192.5 27.5q57 0 106 -10t88 -26t67.5 -36.5t43.5 -42.5l-82 -100q-35 46 -93.5 70t-143.5 24q-71 0 -125.5 -18t-92 -51t-57 -79
t-19.5 -102q0 -58 21 -104.5t59 -79t91 -50t118 -17.5q79 0 140 22.5t98 73.5zM395 -210q36 31 38 72q-53 0 -53 53q0 26 18 38.5t51 12.5q37 0 52.5 -17t15.5 -48q0 -35 -23 -69.5t-61 -63.5z" />
    <glyph glyph-name="Egrave" unicode="&#xc8;" horiz-adv-x="715" 
d="M72 0v717h586v-118h-456v-179h406v-102h-406v-196h467v-122h-597zM191 889l50 71l243 -170l-29 -44z" />
    <glyph glyph-name="Eacute" unicode="&#xc9;" horiz-adv-x="715" 
d="M72 0v717h586v-118h-456v-179h406v-102h-406v-196h467v-122h-597zM270 746l-29 44l243 170l50 -71z" />
    <glyph glyph-name="Ecircumflex" unicode="&#xca;" horiz-adv-x="715" 
d="M72 0v717h586v-118h-456v-179h406v-102h-406v-196h467v-122h-597zM503 746l-137 108l-137 -108l-43 33l145 151h73l145 -151z" />
    <glyph glyph-name="Edieresis" unicode="&#xcb;" horiz-adv-x="715" 
d="M72 0v717h586v-118h-456v-179h406v-102h-406v-196h467v-122h-597zM244 786q-29 0 -46.5 15t-17.5 47t17.5 47.5t46.5 15.5q26 0 43 -15.5t17 -47.5t-17 -47t-43 -15zM494 786q-29 0 -46 15t-17 47t17 47.5t46 15.5q61 0 61 -63q0 -62 -61 -62z" />
    <glyph glyph-name="Igrave" unicode="&#xcc;" horiz-adv-x="283" 
d="M76 0v717h130v-717h-130zM-34 889l50 71l243 -170l-29 -44z" />
    <glyph glyph-name="Iacute" unicode="&#xcd;" horiz-adv-x="283" 
d="M76 0v717h130v-717h-130zM55 746l-29 44l243 170l50 -71z" />
    <glyph glyph-name="Icircumflex" unicode="&#xce;" horiz-adv-x="283" 
d="M76 0v717h130v-717h-130zM278 746l-137 108l-137 -108l-43 33l145 151h73l145 -151z" />
    <glyph glyph-name="Idieresis" unicode="&#xcf;" horiz-adv-x="283" 
d="M76 0v717h130v-717h-130zM19 786q-29 0 -46.5 15t-17.5 47t17.5 47.5t46.5 15.5q26 0 43 -15.5t17 -47.5t-17 -47t-43 -15zM269 786q-29 0 -46 15t-17 47t17 47.5t46 15.5q61 0 61 -63q0 -62 -61 -62z" />
    <glyph glyph-name="Eth" unicode="&#xd0;" horiz-adv-x="873" 
d="M84 0v305h-45v95h45v317h344q103 0 178.5 -27t124.5 -75t72.5 -113.5t23.5 -143.5t-28.5 -143.5t-80.5 -113t-126 -74.5t-164 -27h-344zM214 305v-184h206q60 0 110 14.5t87 43.5t57.5 73t20.5 103q0 121 -70 182t-205 61h-206v-198h217v-95h-217z" />
    <glyph glyph-name="Ntilde" unicode="&#xd1;" horiz-adv-x="842" 
d="M646 0l-446 504v-504h-128v717h132l441 -523v523h127v-717h-126zM620 847q-15 -37 -41.5 -58.5t-71.5 -21.5q-24 0 -45.5 8.5t-42.5 18t-42.5 18t-45.5 8.5q-21 0 -32.5 -9.5t-18.5 -31.5l-59 34q16 39 43 59.5t70 20.5q24 0 45.5 -8.5t43 -18t43 -18t44.5 -8.5
q21 0 32.5 9.5t18.5 31.5z" />
    <glyph glyph-name="Ograve" unicode="&#xd2;" horiz-adv-x="941" 
d="M893 349q0 -84 -31.5 -151.5t-88 -115t-134.5 -73.5t-171 -26q-89 0 -165.5 26t-133 73.5t-89 115t-32.5 151.5t30 153.5t85.5 120t132.5 78.5t172 28q93 0 171 -28t134.5 -78.5t88 -120t31.5 -153.5zM757 349q0 59 -21.5 106.5t-60 81t-91.5 51.5t-116 18
q-62 0 -115 -18t-91.5 -51.5t-60 -81t-21.5 -106.5t22.5 -104.5t61.5 -77t91.5 -48t112.5 -16.5q63 0 116 16.5t91.5 48t60 77t21.5 104.5zM294 889l50 71l243 -170l-29 -44z" />
    <glyph glyph-name="Oacute" unicode="&#xd3;" horiz-adv-x="941" 
d="M893 349q0 -84 -31.5 -151.5t-88 -115t-134.5 -73.5t-171 -26q-89 0 -165.5 26t-133 73.5t-89 115t-32.5 151.5t30 153.5t85.5 120t132.5 78.5t172 28q93 0 171 -28t134.5 -78.5t88 -120t31.5 -153.5zM757 349q0 59 -21.5 106.5t-60 81t-91.5 51.5t-116 18
q-62 0 -115 -18t-91.5 -51.5t-60 -81t-21.5 -106.5t22.5 -104.5t61.5 -77t91.5 -48t112.5 -16.5q63 0 116 16.5t91.5 48t60 77t21.5 104.5zM383 746l-29 44l243 170l50 -71z" />
    <glyph glyph-name="Ocircumflex" unicode="&#xd4;" horiz-adv-x="941" 
d="M893 349q0 -84 -31.5 -151.5t-88 -115t-134.5 -73.5t-171 -26q-89 0 -165.5 26t-133 73.5t-89 115t-32.5 151.5t30 153.5t85.5 120t132.5 78.5t172 28q93 0 171 -28t134.5 -78.5t88 -120t31.5 -153.5zM757 349q0 59 -21.5 106.5t-60 81t-91.5 51.5t-116 18
q-62 0 -115 -18t-91.5 -51.5t-60 -81t-21.5 -106.5t22.5 -104.5t61.5 -77t91.5 -48t112.5 -16.5q63 0 116 16.5t91.5 48t60 77t21.5 104.5zM606 746l-137 108l-137 -108l-43 33l145 151h73l145 -151z" />
    <glyph glyph-name="Otilde" unicode="&#xd5;" horiz-adv-x="941" 
d="M893 349q0 -84 -31.5 -151.5t-88 -115t-134.5 -73.5t-171 -26q-89 0 -165.5 26t-133 73.5t-89 115t-32.5 151.5t30 153.5t85.5 120t132.5 78.5t172 28q93 0 171 -28t134.5 -78.5t88 -120t31.5 -153.5zM757 349q0 59 -21.5 106.5t-60 81t-91.5 51.5t-116 18
q-62 0 -115 -18t-91.5 -51.5t-60 -81t-21.5 -106.5t22.5 -104.5t61.5 -77t91.5 -48t112.5 -16.5q63 0 116 16.5t91.5 48t60 77t21.5 104.5zM670 847q-15 -37 -41.5 -58.5t-71.5 -21.5q-24 0 -45.5 8.5t-42.5 18t-42.5 18t-45.5 8.5q-21 0 -32.5 -9.5t-18.5 -31.5l-59 34
q16 39 43 59.5t70 20.5q24 0 45.5 -8.5t43 -18t43 -18t44.5 -8.5q21 0 32.5 9.5t18.5 31.5z" />
    <glyph glyph-name="Odieresis" unicode="&#xd6;" horiz-adv-x="941" 
d="M893 349q0 -84 -31.5 -151.5t-88 -115t-134.5 -73.5t-171 -26q-89 0 -165.5 26t-133 73.5t-89 115t-32.5 151.5t30 153.5t85.5 120t132.5 78.5t172 28q93 0 171 -28t134.5 -78.5t88 -120t31.5 -153.5zM757 349q0 59 -21.5 106.5t-60 81t-91.5 51.5t-116 18
q-62 0 -115 -18t-91.5 -51.5t-60 -81t-21.5 -106.5t22.5 -104.5t61.5 -77t91.5 -48t112.5 -16.5q63 0 116 16.5t91.5 48t60 77t21.5 104.5zM347 786q-29 0 -46.5 15t-17.5 47t17.5 47.5t46.5 15.5q26 0 43 -15.5t17 -47.5t-17 -47t-43 -15zM597 786q-29 0 -46 15t-17 47
t17 47.5t46 15.5q61 0 61 -63q0 -62 -61 -62z" />
    <glyph glyph-name="multiply" unicode="&#xd7;" 
d="M429 176l-131 131l-132 -132l-60 61l132 131l-130 130l60 59l129 -129l130 130l61 -60l-131 -131l131 -130z" />
    <glyph glyph-name="Oslash" unicode="&#xd8;" horiz-adv-x="941" 
d="M893 349q0 -84 -31.5 -151.5t-88 -115t-134.5 -73.5t-171 -26q-102 0 -190 35l-67 -92l-83 46l66 91q-69 48 -107.5 120t-38.5 166q0 84 30 153.5t85.5 120t132.5 78.5t172 28q100 0 188 -35l67 91l81 -46l-65 -90q72 -51 113 -127t41 -173zM757 349q0 63 -24.5 113
t-69.5 84l-311 -426q57 -17 116 -17q63 0 116 16.5t91.5 48t60 77t21.5 104.5zM180 349q0 -61 23 -107.5t65 -78.5l312 426q-56 17 -112 17q-62 0 -115 -18t-91.5 -51.5t-60 -81t-21.5 -106.5z" />
    <glyph glyph-name="Ugrave" unicode="&#xd9;" horiz-adv-x="831" 
d="M636 717h130v-441q0 -83 -30 -139t-79 -90.5t-112 -49t-130 -14.5t-130 14.5t-112 49t-79 90.5t-30 139v441h129v-436q0 -91 59.5 -134.5t162.5 -43.5t162 43.5t59 134.5v436zM239 889l50 71l243 -170l-29 -44z" />
    <glyph glyph-name="Uacute" unicode="&#xda;" horiz-adv-x="831" 
d="M636 717h130v-441q0 -83 -30 -139t-79 -90.5t-112 -49t-130 -14.5t-130 14.5t-112 49t-79 90.5t-30 139v441h129v-436q0 -91 59.5 -134.5t162.5 -43.5t162 43.5t59 134.5v436zM328 746l-29 44l243 170l50 -71z" />
    <glyph glyph-name="Ucircumflex" unicode="&#xdb;" horiz-adv-x="831" 
d="M636 717h130v-441q0 -83 -30 -139t-79 -90.5t-112 -49t-130 -14.5t-130 14.5t-112 49t-79 90.5t-30 139v441h129v-436q0 -91 59.5 -134.5t162.5 -43.5t162 43.5t59 134.5v436zM551 746l-137 108l-137 -108l-43 33l145 151h73l145 -151z" />
    <glyph glyph-name="Udieresis" unicode="&#xdc;" horiz-adv-x="831" 
d="M636 717h130v-441q0 -83 -30 -139t-79 -90.5t-112 -49t-130 -14.5t-130 14.5t-112 49t-79 90.5t-30 139v441h129v-436q0 -91 59.5 -134.5t162.5 -43.5t162 43.5t59 134.5v436zM292 786q-29 0 -46.5 15t-17.5 47t17.5 47.5t46.5 15.5q26 0 43 -15.5t17 -47.5t-17 -47
t-43 -15zM542 786q-29 0 -46 15t-17 47t17 47.5t46 15.5q61 0 61 -63q0 -62 -61 -62z" />
    <glyph glyph-name="Yacute" unicode="&#xdd;" horiz-adv-x="844" 
d="M360 0v289l-353 428h168l252 -314l250 314h160l-348 -429v-288h-129zM334 746l-29 44l243 170l50 -71z" />
    <glyph glyph-name="Thorn" unicode="&#xde;" horiz-adv-x="706" 
d="M203 119v-119h-131v717h131v-124h186q142 0 211.5 -52.5t69.5 -178.5q0 -128 -69 -185.5t-212 -57.5h-186zM389 241q37 0 65.5 5.5t48 19.5t30 37t10.5 59q0 35 -10.5 57.5t-30 35t-48 17t-65.5 4.5h-186v-235h186z" />
    <glyph glyph-name="germandbls" unicode="&#xdf;" horiz-adv-x="1100" 
d="M433 389q-31 31 -75 46.5t-89 15.5q-14 0 -33 -3.5t-36 -11t-29 -18.5t-12 -27q0 -29 26 -42.5t64.5 -22t83.5 -16t83.5 -24t64.5 -47t26 -84.5q0 -50 -20 -82.5t-52.5 -51.5t-74.5 -26.5t-87 -7.5q-75 0 -140.5 24t-104.5 80l82 75q23 -38 68 -62t106 -24q17 0 37 3
t37.5 10.5t29 20t11.5 30.5q0 30 -25.5 43.5t-64 22t-83.5 16t-83.5 24.5t-64 48t-25.5 86q0 43 19 73.5t49.5 49.5t70 28t80.5 9q60 0 118.5 -14.5t106.5 -52.5zM983 389q-31 31 -75 46.5t-89 15.5q-14 0 -33 -3.5t-36 -11t-29 -18.5t-12 -27q0 -29 26 -42.5t64.5 -22
t83.5 -16t83.5 -24t64.5 -47t26 -84.5q0 -50 -20 -82.5t-52.5 -51.5t-74.5 -26.5t-87 -7.5q-75 0 -140.5 24t-104.5 80l82 75q23 -38 68 -62t106 -24q17 0 37 3t37.5 10.5t29 20t11.5 30.5q0 30 -25.5 43.5t-64 22t-83.5 16t-83.5 24.5t-64 48t-25.5 86q0 43 19 73.5
t49.5 49.5t70 28t80.5 9q60 0 118.5 -14.5t106.5 -52.5z" />
    <glyph glyph-name="agrave" unicode="&#xe0;" horiz-adv-x="674" 
d="M532 0l-68 136h-263l-68 -136h-123l278 534h95l280 -534h-131zM238 214h189l-93 185zM160 706l50 71l243 -170l-29 -44z" />
    <glyph glyph-name="aacute" unicode="&#xe1;" horiz-adv-x="674" 
d="M532 0l-68 136h-263l-68 -136h-123l278 534h95l280 -534h-131zM238 214h189l-93 185zM249 563l-29 44l243 170l50 -71z" />
    <glyph glyph-name="acircumflex" unicode="&#xe2;" horiz-adv-x="674" 
d="M532 0l-68 136h-263l-68 -136h-123l278 534h95l280 -534h-131zM238 214h189l-93 185zM472 563l-137 108l-137 -108l-43 33l145 151h73l145 -151z" />
    <glyph glyph-name="atilde" unicode="&#xe3;" horiz-adv-x="674" 
d="M532 0l-68 136h-263l-68 -136h-123l278 534h95l280 -534h-131zM238 214h189l-93 185zM536 664q-15 -37 -41.5 -58.5t-71.5 -21.5q-24 0 -45.5 8.5t-42.5 18t-42.5 18t-45.5 8.5q-21 0 -32.5 -9.5t-18.5 -31.5l-59 34q16 39 43 59.5t70 20.5q24 0 45.5 -8.5t43 -18t43 -18
t44.5 -8.5q21 0 32.5 9.5t18.5 31.5z" />
    <glyph glyph-name="adieresis" unicode="&#xe4;" horiz-adv-x="674" 
d="M532 0l-68 136h-263l-68 -136h-123l278 534h95l280 -534h-131zM238 214h189l-93 185zM213 603q-29 0 -46.5 15t-17.5 47t17.5 47.5t46.5 15.5q26 0 43 -15.5t17 -47.5t-17 -47t-43 -15zM463 603q-29 0 -46 15t-17 47t17 47.5t46 15.5q61 0 61 -63q0 -62 -61 -62z" />
    <glyph glyph-name="aring" unicode="&#xe5;" horiz-adv-x="674" 
d="M532 0l-68 136h-263l-68 -136h-123l278 534h95l280 -534h-131zM238 214h189l-93 185zM461 671q0 -24 -9.5 -44t-26 -34t-39 -22t-49.5 -8q-54 0 -89.5 30t-35.5 78q0 54 35.5 80t89.5 26q25 0 47.5 -6.5t39.5 -19.5t27 -33t10 -47zM408 671q0 27 -19.5 40t-51.5 13
t-51 -13t-19 -40q0 -26 19 -39.5t51 -13.5t51.5 13.5t19.5 39.5z" />
    <glyph glyph-name="ae" unicode="&#xe6;" horiz-adv-x="886" 
d="M407 0v136h-200l-72 -136h-125l289 534h534v-102h-306v-118h253v-75h-253v-136h313v-103h-433zM407 438h-39l-120 -218h159v218z" />
    <glyph glyph-name="ccedilla" unicode="&#xe7;" horiz-adv-x="655" 
d="M610 83q-13 -17 -35 -34t-54 -31t-73 -23t-92 -9q-66 0 -122.5 19t-98 55t-64.5 87t-23 114q0 62 21 114t62 89.5t101.5 58.5t140.5 21q46 0 85.5 -8.5t70 -22t52 -30.5t32.5 -33l-74 -78q-28 33 -70 49.5t-103 16.5q-49 0 -86.5 -13.5t-63.5 -37t-39.5 -55.5t-13.5 -69
q0 -39 15.5 -71t43 -54t66.5 -34t86 -12q61 0 99 20.5t66 53.5zM284 -210q36 31 38 72q-53 0 -53 53q0 26 18 38.5t51 12.5q37 0 52.5 -17t15.5 -48q0 -35 -23 -69.5t-61 -63.5z" />
    <glyph glyph-name="egrave" unicode="&#xe8;" horiz-adv-x="563" 
d="M72 0v534h438v-103h-324v-115h274v-80h-274v-131h331v-105h-445zM115 706l50 71l243 -170l-29 -44z" />
    <glyph glyph-name="eacute" unicode="&#xe9;" horiz-adv-x="563" 
d="M72 0v534h438v-103h-324v-115h274v-80h-274v-131h331v-105h-445zM194 563l-29 44l243 170l50 -71z" />
    <glyph glyph-name="ecircumflex" unicode="&#xea;" horiz-adv-x="563" 
d="M72 0v534h438v-103h-324v-115h274v-80h-274v-131h331v-105h-445zM427 563l-137 108l-137 -108l-43 33l145 151h73l145 -151z" />
    <glyph glyph-name="edieresis" unicode="&#xeb;" horiz-adv-x="563" 
d="M72 0v534h438v-103h-324v-115h274v-80h-274v-131h331v-105h-445zM168 603q-29 0 -46.5 15t-17.5 47t17.5 47.5t46.5 15.5q26 0 43 -15.5t17 -47.5t-17 -47t-43 -15zM418 603q-29 0 -46 15t-17 47t17 47.5t46 15.5q61 0 61 -63q0 -62 -61 -62z" />
    <glyph glyph-name="igrave" unicode="&#xec;" horiz-adv-x="301" 
d="M111 0v534h114v-534h-114zM-7 706l50 71l243 -170l-29 -44z" />
    <glyph glyph-name="iacute" unicode="&#xed;" horiz-adv-x="297" 
d="M76 0v534h114v-534h-114zM47 563l-29 44l243 170l50 -71z" />
    <glyph glyph-name="icircumflex" unicode="&#xee;" horiz-adv-x="363" 
d="M124 0v534h114v-534h-114zM318 563l-137 108l-137 -108l-43 33l145 151h73l145 -151z" />
    <glyph glyph-name="idieresis" unicode="&#xef;" horiz-adv-x="375" 
d="M130 0v534h114v-534h-114zM65 603q-29 0 -46.5 15t-17.5 47t17.5 47.5t46.5 15.5q26 0 43 -15.5t17 -47.5t-17 -47t-43 -15zM315 603q-29 0 -46 15t-17 47t17 47.5t46 15.5q61 0 61 -63q0 -62 -61 -62z" />
    <glyph glyph-name="eth" unicode="&#xf0;" horiz-adv-x="676" 
d="M329 0q-64 0 -127 -0.5t-127 -0.5v227h-36v78h36v230h252q70 0 126 -18t95 -52t60 -84t21 -114q0 -59 -22 -108t-62 -84t-95 -54.5t-121 -19.5zM190 226v-120h131q42 0 77 11t60.5 32t40 51t14.5 68q0 75 -49.5 118.5t-140.5 43.5h-133v-126h169v-78h-169z" />
    <glyph glyph-name="ntilde" unicode="&#xf1;" horiz-adv-x="664" 
d="M497 0l-311 347v-347h-114v534h107l303 -362v362h112v-534h-97zM531 664q-15 -37 -41.5 -58.5t-71.5 -21.5q-24 0 -45.5 8.5t-42.5 18t-42.5 18t-45.5 8.5q-21 0 -32.5 -9.5t-18.5 -31.5l-59 34q16 39 43 59.5t70 20.5q24 0 45.5 -8.5t43 -18t43 -18t44.5 -8.5
q21 0 32.5 9.5t18.5 31.5z" />
    <glyph glyph-name="ograve" unicode="&#xf2;" horiz-adv-x="722" 
d="M673 260q0 -62 -23 -112.5t-64.5 -86.5t-99 -55.5t-126.5 -19.5q-68 0 -125.5 19.5t-99 55.5t-64.5 86.5t-23 112.5t22.5 114t64 90t99 59t126.5 21t126.5 -21t99 -59t64.5 -90t23 -114zM558 260q0 39 -13.5 71.5t-39 55.5t-62.5 36t-83 13q-94 0 -145 -49t-51 -127
q0 -79 51 -123t145 -44t146 44t52 123zM184 706l50 71l243 -170l-29 -44z" />
    <glyph glyph-name="oacute" unicode="&#xf3;" horiz-adv-x="722" 
d="M673 260q0 -62 -23 -112.5t-64.5 -86.5t-99 -55.5t-126.5 -19.5q-68 0 -125.5 19.5t-99 55.5t-64.5 86.5t-23 112.5t22.5 114t64 90t99 59t126.5 21t126.5 -21t99 -59t64.5 -90t23 -114zM558 260q0 39 -13.5 71.5t-39 55.5t-62.5 36t-83 13q-94 0 -145 -49t-51 -127
q0 -79 51 -123t145 -44t146 44t52 123zM273 563l-29 44l243 170l50 -71z" />
    <glyph glyph-name="ocircumflex" unicode="&#xf4;" horiz-adv-x="722" 
d="M673 260q0 -62 -23 -112.5t-64.5 -86.5t-99 -55.5t-126.5 -19.5q-68 0 -125.5 19.5t-99 55.5t-64.5 86.5t-23 112.5t22.5 114t64 90t99 59t126.5 21t126.5 -21t99 -59t64.5 -90t23 -114zM558 260q0 39 -13.5 71.5t-39 55.5t-62.5 36t-83 13q-94 0 -145 -49t-51 -127
q0 -79 51 -123t145 -44t146 44t52 123zM496 563l-137 108l-137 -108l-43 33l145 151h73l145 -151z" />
    <glyph glyph-name="otilde" unicode="&#xf5;" horiz-adv-x="722" 
d="M673 260q0 -62 -23 -112.5t-64.5 -86.5t-99 -55.5t-126.5 -19.5q-68 0 -125.5 19.5t-99 55.5t-64.5 86.5t-23 112.5t22.5 114t64 90t99 59t126.5 21t126.5 -21t99 -59t64.5 -90t23 -114zM558 260q0 39 -13.5 71.5t-39 55.5t-62.5 36t-83 13q-94 0 -145 -49t-51 -127
q0 -79 51 -123t145 -44t146 44t52 123zM560 664q-15 -37 -41.5 -58.5t-71.5 -21.5q-24 0 -45.5 8.5t-42.5 18t-42.5 18t-45.5 8.5q-21 0 -32.5 -9.5t-18.5 -31.5l-59 34q16 39 43 59.5t70 20.5q24 0 45.5 -8.5t43 -18t43 -18t44.5 -8.5q21 0 32.5 9.5t18.5 31.5z" />
    <glyph glyph-name="odieresis" unicode="&#xf6;" horiz-adv-x="722" 
d="M673 260q0 -62 -23 -112.5t-64.5 -86.5t-99 -55.5t-126.5 -19.5q-68 0 -125.5 19.5t-99 55.5t-64.5 86.5t-23 112.5t22.5 114t64 90t99 59t126.5 21t126.5 -21t99 -59t64.5 -90t23 -114zM558 260q0 39 -13.5 71.5t-39 55.5t-62.5 36t-83 13q-94 0 -145 -49t-51 -127
q0 -79 51 -123t145 -44t146 44t52 123zM237 603q-29 0 -46.5 15t-17.5 47t17.5 47.5t46.5 15.5q26 0 43 -15.5t17 -47.5t-17 -47t-43 -15zM487 603q-29 0 -46 15t-17 47t17 47.5t46 15.5q61 0 61 -63q0 -62 -61 -62z" />
    <glyph glyph-name="divide" unicode="&#xf7;" 
d="M71 324v85h454v-85h-454zM370 541q0 -62 -71 -62q-73 0 -73 62q0 59 73 59q71 0 71 -59zM370 195q0 -62 -71 -62q-73 0 -73 62q0 59 73 59q71 0 71 -59z" />
    <glyph glyph-name="oslash" unicode="&#xf8;" horiz-adv-x="722" 
d="M96 -30l56 77q-49 36 -76.5 90t-27.5 123q0 62 22.5 114t64 90t99 59t126.5 21q38 0 72 -6.5t64 -18.5l52 71l62 -36l-51 -70q54 -38 84 -95t30 -129q0 -62 -23 -112.5t-64.5 -86.5t-99 -55.5t-126.5 -19.5q-76 0 -145 26l-56 -77zM558 260q0 43 -16.5 78t-46.5 58
l-214 -293q30 -10 79 -10q94 0 146 44t52 123zM164 260q0 -79 53 -124l212 291q-16 4 -33 6.5t-36 2.5q-94 0 -145 -49t-51 -127z" />
    <glyph glyph-name="ugrave" unicode="&#xf9;" horiz-adv-x="653" 
d="M473 534h116v-333q0 -62 -21 -103t-57 -66t-83.5 -35.5t-99.5 -10.5q-53 0 -101 10.5t-84 35.5t-57.5 66t-21.5 103v333h115v-315q0 -66 38.5 -96t110.5 -30q69 0 107 30t38 96v315zM150 706l50 71l243 -170l-29 -44z" />
    <glyph glyph-name="uacute" unicode="&#xfa;" horiz-adv-x="653" 
d="M473 534h116v-333q0 -62 -21 -103t-57 -66t-83.5 -35.5t-99.5 -10.5q-53 0 -101 10.5t-84 35.5t-57.5 66t-21.5 103v333h115v-315q0 -66 38.5 -96t110.5 -30q69 0 107 30t38 96v315zM239 563l-29 44l243 170l50 -71z" />
    <glyph glyph-name="ucircumflex" unicode="&#xfb;" horiz-adv-x="653" 
d="M473 534h116v-333q0 -62 -21 -103t-57 -66t-83.5 -35.5t-99.5 -10.5q-53 0 -101 10.5t-84 35.5t-57.5 66t-21.5 103v333h115v-315q0 -66 38.5 -96t110.5 -30q69 0 107 30t38 96v315zM462 563l-137 108l-137 -108l-43 33l145 151h73l145 -151z" />
    <glyph glyph-name="udieresis" unicode="&#xfc;" horiz-adv-x="653" 
d="M473 534h116v-333q0 -62 -21 -103t-57 -66t-83.5 -35.5t-99.5 -10.5q-53 0 -101 10.5t-84 35.5t-57.5 66t-21.5 103v333h115v-315q0 -66 38.5 -96t110.5 -30q69 0 107 30t38 96v315zM203 603q-29 0 -46.5 15t-17.5 47t17.5 47.5t46.5 15.5q26 0 43 -15.5t17 -47.5
t-17 -47t-43 -15zM453 603q-29 0 -46 15t-17 47t17 47.5t46 15.5q61 0 61 -63q0 -62 -61 -62z" />
    <glyph glyph-name="yacute" unicode="&#xfd;" horiz-adv-x="646" 
d="M271 0v213l-264 321h143l178 -224l176 224h134l-253 -321v-213h-114zM235 563l-29 44l243 170l50 -71z" />
    <glyph glyph-name="thorn" unicode="&#xfe;" horiz-adv-x="580" 
d="M187 88v-88h-115v534h115v-80h158q97 0 147.5 -48t50.5 -133t-53 -135t-156 -50h-147zM187 346v-151h147q41 0 69 17t28 61q0 42 -24 57.5t-62 15.5h-158z" />
    <glyph glyph-name="ydieresis" unicode="&#xff;" horiz-adv-x="646" 
d="M271 0v213l-264 321h143l178 -224l176 224h134l-253 -321v-213h-114zM199 603q-29 0 -46.5 15t-17.5 47t17.5 47.5t46.5 15.5q26 0 43 -15.5t17 -47.5t-17 -47t-43 -15zM449 603q-29 0 -46 15t-17 47t17 47.5t46 15.5q61 0 61 -63q0 -62 -61 -62z" />
    <glyph glyph-name="Amacron" unicode="&#x100;" horiz-adv-x="895" 
d="M731 0l-94 188h-386l-94 -188h-147l372 717h125l378 -717h-154zM445 575l-145 -284h288zM278 802v73h339v-73h-339z" />
    <glyph glyph-name="amacron" unicode="&#x101;" horiz-adv-x="674" 
d="M532 0l-68 136h-263l-68 -136h-123l278 534h95l280 -534h-131zM238 214h189l-93 185zM167 619v73h339v-73h-339z" />
    <glyph glyph-name="Abreve" unicode="&#x102;" horiz-adv-x="895" 
d="M731 0l-94 188h-386l-94 -188h-147l372 717h125l378 -717h-154zM445 575l-145 -284h288zM653 916q-6 -35 -19.5 -65.5t-38 -54t-61 -37t-87.5 -13.5t-87.5 13.5t-61 37t-38 54t-19.5 65.5l83 10q11 -66 38.5 -94t84.5 -28t84 28t38 94z" />
    <glyph glyph-name="abreve" unicode="&#x103;" horiz-adv-x="674" 
d="M532 0l-68 136h-263l-68 -136h-123l278 534h95l280 -534h-131zM238 214h189l-93 185zM543 733q-6 -35 -19.5 -65.5t-38 -54t-61 -37t-87.5 -13.5t-87.5 13.5t-61 37t-38 54t-19.5 65.5l83 10q11 -66 38.5 -94t84.5 -28t84 28t38 94z" />
    <glyph glyph-name="Aogonek" unicode="&#x104;" horiz-adv-x="895" 
d="M905 -196q-42 -23 -82 -33.5t-93 -10.5q-23 0 -47.5 5.5t-44.5 17.5t-33 31.5t-13 48.5q0 28 12 48.5t32.5 35.5t46.5 25t54 17l-100 199h-386l-94 -188h-147l372 717h125l378 -717q-49 -9 -88 -18.5t-66 -22.5t-41.5 -29.5t-14.5 -40.5q0 -15 7 -25t17.5 -15t22.5 -7
t23 -2q30 0 62.5 6.5t57.5 21.5zM445 575l-145 -284h288z" />
    <glyph glyph-name="aogonek" unicode="&#x105;" horiz-adv-x="674" 
d="M683 -196q-42 -23 -82 -33.5t-93 -10.5q-23 0 -47.5 5.5t-44.5 17.5t-33 31.5t-13 48.5q0 30 14 52t37.5 37.5t53 25t60.5 15.5l-71 143h-263l-68 -136h-123l278 534h95l280 -534q-49 -9 -88 -18.5t-66 -22.5t-41.5 -29.5t-14.5 -40.5q0 -15 7 -25t17.5 -15t22.5 -7
t23 -2q30 0 62.5 6.5t57.5 21.5zM238 214h189l-93 185z" />
    <glyph glyph-name="Cacute" unicode="&#x106;" horiz-adv-x="838" 
d="M791 110q-20 -26 -51.5 -49t-72.5 -40t-90.5 -27t-105.5 -10q-89 0 -166 25t-134 72.5t-90 117t-33 159.5q0 81 28 149t83.5 117.5t138 77t192.5 27.5q57 0 106 -10t88 -26t67.5 -36.5t43.5 -42.5l-82 -100q-35 46 -93.5 70t-143.5 24q-71 0 -125.5 -18t-92 -51t-57 -79
t-19.5 -102q0 -58 21 -104.5t59 -79t91 -50t118 -17.5q79 0 140 22.5t98 73.5zM361 746l-29 44l243 170l50 -71z" />
    <glyph glyph-name="cacute" unicode="&#x107;" horiz-adv-x="655" 
d="M610 83q-13 -17 -35 -34t-54 -31t-73 -23t-92 -9q-66 0 -122.5 19t-98 55t-64.5 87t-23 114q0 62 21 114t62 89.5t101.5 58.5t140.5 21q46 0 85.5 -8.5t70 -22t52 -30.5t32.5 -33l-74 -78q-28 33 -70 49.5t-103 16.5q-49 0 -86.5 -13.5t-63.5 -37t-39.5 -55.5t-13.5 -69
q0 -39 15.5 -71t43 -54t66.5 -34t86 -12q61 0 99 20.5t66 53.5zM260 563l-29 44l243 170l50 -71z" />
    <glyph glyph-name="Ccircumflex" unicode="&#x108;" horiz-adv-x="838" 
d="M791 110q-20 -26 -51.5 -49t-72.5 -40t-90.5 -27t-105.5 -10q-89 0 -166 25t-134 72.5t-90 117t-33 159.5q0 81 28 149t83.5 117.5t138 77t192.5 27.5q57 0 106 -10t88 -26t67.5 -36.5t43.5 -42.5l-82 -100q-35 46 -93.5 70t-143.5 24q-71 0 -125.5 -18t-92 -51t-57 -79
t-19.5 -102q0 -58 21 -104.5t59 -79t91 -50t118 -17.5q79 0 140 22.5t98 73.5zM594 746l-137 108l-137 -108l-43 33l145 151h73l145 -151z" />
    <glyph glyph-name="ccircumflex" unicode="&#x109;" horiz-adv-x="655" 
d="M610 83q-13 -17 -35 -34t-54 -31t-73 -23t-92 -9q-66 0 -122.5 19t-98 55t-64.5 87t-23 114q0 62 21 114t62 89.5t101.5 58.5t140.5 21q46 0 85.5 -8.5t70 -22t52 -30.5t32.5 -33l-74 -78q-28 33 -70 49.5t-103 16.5q-49 0 -86.5 -13.5t-63.5 -37t-39.5 -55.5t-13.5 -69
q0 -39 15.5 -71t43 -54t66.5 -34t86 -12q61 0 99 20.5t66 53.5zM488 563l-137 108l-137 -108l-43 33l145 151h73l145 -151z" />
    <glyph glyph-name="Cdotaccent" unicode="&#x10a;" horiz-adv-x="838" 
d="M791 110q-20 -26 -51.5 -49t-72.5 -40t-90.5 -27t-105.5 -10q-89 0 -166 25t-134 72.5t-90 117t-33 159.5q0 81 28 149t83.5 117.5t138 77t192.5 27.5q57 0 106 -10t88 -26t67.5 -36.5t43.5 -42.5l-82 -100q-35 46 -93.5 70t-143.5 24q-71 0 -125.5 -18t-92 -51t-57 -79
t-19.5 -102q0 -58 21 -104.5t59 -79t91 -50t118 -17.5q79 0 140 22.5t98 73.5zM451 786q-29 0 -46.5 15t-17.5 47t17.5 47.5t46.5 15.5q26 0 43 -15.5t17 -47.5t-17 -47t-43 -15z" />
    <glyph glyph-name="cdotaccent" unicode="&#x10b;" horiz-adv-x="655" 
d="M610 83q-13 -17 -35 -34t-54 -31t-73 -23t-92 -9q-66 0 -122.5 19t-98 55t-64.5 87t-23 114q0 62 21 114t62 89.5t101.5 58.5t140.5 21q46 0 85.5 -8.5t70 -22t52 -30.5t32.5 -33l-74 -78q-28 33 -70 49.5t-103 16.5q-49 0 -86.5 -13.5t-63.5 -37t-39.5 -55.5t-13.5 -69
q0 -39 15.5 -71t43 -54t66.5 -34t86 -12q61 0 99 20.5t66 53.5zM349 603q-29 0 -46.5 15t-17.5 47t17.5 47.5t46.5 15.5q26 0 43 -15.5t17 -47.5t-17 -47t-43 -15z" />
    <glyph glyph-name="Ccaron" unicode="&#x10c;" horiz-adv-x="838" 
d="M791 110q-20 -26 -51.5 -49t-72.5 -40t-90.5 -27t-105.5 -10q-89 0 -166 25t-134 72.5t-90 117t-33 159.5q0 81 28 149t83.5 117.5t138 77t192.5 27.5q57 0 106 -10t88 -26t67.5 -36.5t43.5 -42.5l-82 -100q-35 46 -93.5 70t-143.5 24q-71 0 -125.5 -18t-92 -51t-57 -79
t-19.5 -102q0 -58 21 -104.5t59 -79t91 -50t118 -17.5q79 0 140 22.5t98 73.5zM424 746l-139 156l40 34l124 -105l124 105l39 -33l-139 -157h-49z" />
    <glyph glyph-name="ccaron" unicode="&#x10d;" horiz-adv-x="655" 
d="M610 83q-13 -17 -35 -34t-54 -31t-73 -23t-92 -9q-66 0 -122.5 19t-98 55t-64.5 87t-23 114q0 62 21 114t62 89.5t101.5 58.5t140.5 21q46 0 85.5 -8.5t70 -22t52 -30.5t32.5 -33l-74 -78q-28 33 -70 49.5t-103 16.5q-49 0 -86.5 -13.5t-63.5 -37t-39.5 -55.5t-13.5 -69
q0 -39 15.5 -71t43 -54t66.5 -34t86 -12q61 0 99 20.5t66 53.5zM323 563l-139 156l40 34l124 -105l124 105l39 -33l-139 -157h-49z" />
    <glyph glyph-name="Dcaron" unicode="&#x10e;" horiz-adv-x="862" 
d="M72 0v717h344q103 0 178.5 -27t124.5 -75t72.5 -113.5t23.5 -143.5t-28.5 -143.5t-80.5 -113t-126 -74.5t-164 -27h-344zM408 121q60 0 110 14.5t87 43.5t57.5 73t20.5 103q0 121 -70 182t-205 61h-206v-477h206zM346 746l-139 156l40 34l124 -105l124 105l39 -33
l-139 -157h-49z" />
    <glyph glyph-name="dcaron" unicode="&#x10f;" horiz-adv-x="672" 
d="M318 106q42 0 77 11t60.5 31.5t39.5 50t14 66.5q0 75 -47 120t-141 45h-134v-324h131zM72 0v534h253q71 0 127 -18.5t94.5 -53t59 -84t20.5 -112.5q0 -59 -22 -108t-61.5 -84t-94.5 -54.5t-122 -19.5h-254zM281 563l-139 156l40 34l124 -105l124 105l39 -33l-139 -157
h-49z" />
    <glyph glyph-name="Dcroat" unicode="&#x110;" horiz-adv-x="873" 
d="M84 0v305h-45v95h45v317h344q103 0 178.5 -27t124.5 -75t72.5 -113.5t23.5 -143.5t-28.5 -143.5t-80.5 -113t-126 -74.5t-164 -27h-344zM214 305v-184h206q60 0 110 14.5t87 43.5t57.5 73t20.5 103q0 121 -70 182t-205 61h-206v-198h217v-95h-217z" />
    <glyph glyph-name="dcroat" unicode="&#x111;" horiz-adv-x="676" 
d="M329 0q-64 0 -127 -0.5t-127 -0.5v227h-36v78h36v230h252q70 0 126 -18t95 -52t60 -84t21 -114q0 -59 -22 -108t-62 -84t-95 -54.5t-121 -19.5zM190 226v-120h131q42 0 77 11t60.5 32t40 51t14.5 68q0 75 -49.5 118.5t-140.5 43.5h-133v-126h169v-78h-169z" />
    <glyph glyph-name="Emacron" unicode="&#x112;" horiz-adv-x="715" 
d="M72 0v717h586v-118h-456v-179h406v-102h-406v-196h467v-122h-597zM198 802v73h339v-73h-339z" />
    <glyph glyph-name="emacron" unicode="&#x113;" horiz-adv-x="563" 
d="M72 0v534h438v-103h-324v-115h274v-80h-274v-131h331v-105h-445zM122 619v73h339v-73h-339z" />
    <glyph glyph-name="Ebreve" unicode="&#x114;" horiz-adv-x="715" 
d="M72 0v717h586v-118h-456v-179h406v-102h-406v-196h467v-122h-597zM573 916q-6 -35 -19.5 -65.5t-38 -54t-61 -37t-87.5 -13.5t-87.5 13.5t-61 37t-38 54t-19.5 65.5l83 10q11 -66 38.5 -94t84.5 -28t84 28t38 94z" />
    <glyph glyph-name="ebreve" unicode="&#x115;" horiz-adv-x="563" 
d="M72 0v534h438v-103h-324v-115h274v-80h-274v-131h331v-105h-445zM497 733q-6 -35 -19.5 -65.5t-38 -54t-61 -37t-87.5 -13.5t-87.5 13.5t-61 37t-38 54t-19.5 65.5l83 10q11 -66 38.5 -94t84.5 -28t84 28t38 94z" />
    <glyph glyph-name="Edotaccent" unicode="&#x116;" horiz-adv-x="715" 
d="M72 0v717h586v-118h-456v-179h406v-102h-406v-196h467v-122h-597zM369 786q-29 0 -46.5 15t-17.5 47t17.5 47.5t46.5 15.5q26 0 43 -15.5t17 -47.5t-17 -47t-43 -15z" />
    <glyph glyph-name="edotaccent" unicode="&#x117;" horiz-adv-x="563" 
d="M72 0v534h438v-103h-324v-115h274v-80h-274v-131h331v-105h-445zM293 603q-29 0 -46.5 15t-17.5 47t17.5 47.5t46.5 15.5q26 0 43 -15.5t17 -47.5t-17 -47t-43 -15z" />
    <glyph glyph-name="Eogonek" unicode="&#x118;" horiz-adv-x="715" 
d="M689 -196q-42 -23 -82 -33.5t-93 -10.5q-23 0 -47.5 5.5t-44.5 17.5t-33 31.5t-13 48.5q0 35 18.5 58.5t48 39t65 24.5t70.5 15h-506v717h586v-118h-456v-179h406v-102h-406v-196h467v-122q-49 -9 -88 -18.5t-66 -22.5t-41.5 -29.5t-14.5 -40.5q0 -15 7 -25t17.5 -15
t22.5 -7t23 -2q30 0 62.5 6.5t57.5 21.5z" />
    <glyph glyph-name="eogonek" unicode="&#x119;" horiz-adv-x="563" 
d="M537 -196q-42 -23 -82 -33.5t-93 -10.5q-23 0 -47.5 5.5t-44.5 17.5t-33 31.5t-13 48.5q0 35 18.5 58.5t48 39t65 24.5t70.5 15h-354v534h438v-103h-324v-115h274v-80h-274v-131h331v-105q-49 -9 -88 -18.5t-66 -22.5t-41.5 -29.5t-14.5 -40.5q0 -15 7 -25t17.5 -15
t22.5 -7t23 -2q30 0 62.5 6.5t57.5 21.5z" />
    <glyph glyph-name="Ecaron" unicode="&#x11a;" horiz-adv-x="715" 
d="M72 0v717h586v-118h-456v-179h406v-102h-406v-196h467v-122h-597zM343 746l-139 156l40 34l124 -105l124 105l39 -33l-139 -157h-49z" />
    <glyph glyph-name="ecaron" unicode="&#x11b;" horiz-adv-x="563" 
d="M72 0v534h438v-103h-324v-115h274v-80h-274v-131h331v-105h-445zM267 563l-139 156l40 34l124 -105l124 105l39 -33l-139 -157h-49z" />
    <glyph glyph-name="Gcircumflex" unicode="&#x11c;" horiz-adv-x="866" 
d="M671 281h-272v111h403v-274q-26 -39 -68 -65t-89.5 -41.5t-94.5 -22t-83 -6.5q-87 0 -163.5 22t-133.5 68t-89.5 116.5t-32.5 166.5q0 86 27 155t79.5 117.5t130.5 74.5t180 26q63 0 113 -7.5t90 -22.5t72 -37t58 -50l-84 -99q-18 20 -39.5 37.5t-51 30t-70.5 19.5t-99 7
q-133 0 -203.5 -64.5t-70.5 -185.5q0 -64 21.5 -111.5t60 -79t92.5 -47t119 -15.5q69 0 119.5 16t78.5 45v116zM578 746l-137 108l-137 -108l-43 33l145 151h73l145 -151z" />
    <glyph glyph-name="gcircumflex" unicode="&#x11d;" horiz-adv-x="679" 
d="M507 212h-204v79h305v-203q-17 -26 -44.5 -45t-61 -32t-70.5 -19t-74 -6q-69 0 -126 19t-98 54.5t-63.5 87.5t-22.5 118q0 61 20 112t59.5 88t97 58t132.5 21q102 0 165 -27t92 -68l-67 -75q-24 32 -67.5 49.5t-116.5 17.5q-51 0 -89 -13.5t-63.5 -37.5t-38 -56
t-12.5 -69q0 -44 16 -78t43.5 -56.5t64.5 -34t79 -11.5q48 0 86.5 12.5t57.5 32.5v82zM485 563l-137 108l-137 -108l-43 33l145 151h73l145 -151z" />
    <glyph glyph-name="Gbreve" unicode="&#x11e;" horiz-adv-x="866" 
d="M671 281h-272v111h403v-274q-26 -39 -68 -65t-89.5 -41.5t-94.5 -22t-83 -6.5q-87 0 -163.5 22t-133.5 68t-89.5 116.5t-32.5 166.5q0 86 27 155t79.5 117.5t130.5 74.5t180 26q63 0 113 -7.5t90 -22.5t72 -37t58 -50l-84 -99q-18 20 -39.5 37.5t-51 30t-70.5 19.5t-99 7
q-133 0 -203.5 -64.5t-70.5 -185.5q0 -64 21.5 -111.5t60 -79t92.5 -47t119 -15.5q69 0 119.5 16t78.5 45v116zM649 916q-6 -35 -19.5 -65.5t-38 -54t-61 -37t-87.5 -13.5t-87.5 13.5t-61 37t-38 54t-19.5 65.5l83 10q11 -66 38.5 -94t84.5 -28t84 28t38 94z" />
    <glyph glyph-name="gbreve" unicode="&#x11f;" horiz-adv-x="679" 
d="M507 212h-204v79h305v-203q-17 -26 -44.5 -45t-61 -32t-70.5 -19t-74 -6q-69 0 -126 19t-98 54.5t-63.5 87.5t-22.5 118q0 61 20 112t59.5 88t97 58t132.5 21q102 0 165 -27t92 -68l-67 -75q-24 32 -67.5 49.5t-116.5 17.5q-51 0 -89 -13.5t-63.5 -37.5t-38 -56
t-12.5 -69q0 -44 16 -78t43.5 -56.5t64.5 -34t79 -11.5q48 0 86.5 12.5t57.5 32.5v82zM555 733q-6 -35 -19.5 -65.5t-38 -54t-61 -37t-87.5 -13.5t-87.5 13.5t-61 37t-38 54t-19.5 65.5l83 10q11 -66 38.5 -94t84.5 -28t84 28t38 94z" />
    <glyph glyph-name="Gdotaccent" unicode="&#x120;" horiz-adv-x="866" 
d="M671 281h-272v111h403v-274q-26 -39 -68 -65t-89.5 -41.5t-94.5 -22t-83 -6.5q-87 0 -163.5 22t-133.5 68t-89.5 116.5t-32.5 166.5q0 86 27 155t79.5 117.5t130.5 74.5t180 26q63 0 113 -7.5t90 -22.5t72 -37t58 -50l-84 -99q-18 20 -39.5 37.5t-51 30t-70.5 19.5t-99 7
q-133 0 -203.5 -64.5t-70.5 -185.5q0 -64 21.5 -111.5t60 -79t92.5 -47t119 -15.5q69 0 119.5 16t78.5 45v116zM445 786q-29 0 -46.5 15t-17.5 47t17.5 47.5t46.5 15.5q26 0 43 -15.5t17 -47.5t-17 -47t-43 -15z" />
    <glyph glyph-name="gdotaccent" unicode="&#x121;" horiz-adv-x="679" 
d="M507 212h-204v79h305v-203q-17 -26 -44.5 -45t-61 -32t-70.5 -19t-74 -6q-69 0 -126 19t-98 54.5t-63.5 87.5t-22.5 118q0 61 20 112t59.5 88t97 58t132.5 21q102 0 165 -27t92 -68l-67 -75q-24 32 -67.5 49.5t-116.5 17.5q-51 0 -89 -13.5t-63.5 -37.5t-38 -56
t-12.5 -69q0 -44 16 -78t43.5 -56.5t64.5 -34t79 -11.5q48 0 86.5 12.5t57.5 32.5v82zM351 603q-29 0 -46.5 15t-17.5 47t17.5 47.5t46.5 15.5q26 0 43 -15.5t17 -47.5t-17 -47t-43 -15z" />
    <glyph glyph-name="uni0122" unicode="&#x122;" horiz-adv-x="866" 
d="M671 281h-272v111h403v-274q-26 -39 -68 -65t-89.5 -41.5t-94.5 -22t-83 -6.5q-87 0 -163.5 22t-133.5 68t-89.5 116.5t-32.5 166.5q0 86 27 155t79.5 117.5t130.5 74.5t180 26q63 0 113 -7.5t90 -22.5t72 -37t58 -50l-84 -99q-18 20 -39.5 37.5t-51 30t-70.5 19.5t-99 7
q-133 0 -203.5 -64.5t-70.5 -185.5q0 -64 21.5 -111.5t60 -79t92.5 -47t119 -15.5q69 0 119.5 16t78.5 45v116zM389 -210q36 31 38 72q-53 0 -53 53q0 26 18 38.5t51 12.5q37 0 52.5 -17t15.5 -48q0 -35 -23 -69.5t-61 -63.5z" />
    <glyph glyph-name="uni0123" unicode="&#x123;" horiz-adv-x="679" 
d="M507 212h-204v79h305v-203q-17 -26 -44.5 -45t-61 -32t-70.5 -19t-74 -6q-69 0 -126 19t-98 54.5t-63.5 87.5t-22.5 118q0 61 20 112t59.5 88t97 58t132.5 21q102 0 165 -27t92 -68l-67 -75q-24 32 -67.5 49.5t-116.5 17.5q-51 0 -89 -13.5t-63.5 -37.5t-38 -56
t-12.5 -69q0 -44 16 -78t43.5 -56.5t64.5 -34t79 -11.5q48 0 86.5 12.5t57.5 32.5v82zM296 -210q36 31 38 72q-53 0 -53 53q0 26 18 38.5t51 12.5q37 0 52.5 -17t15.5 -48q0 -35 -23 -69.5t-61 -63.5z" />
    <glyph glyph-name="Hcircumflex" unicode="&#x124;" horiz-adv-x="818" 
d="M616 0v308h-414v-308h-130v717h130v-284h414v284h130v-717h-130zM544 746l-137 108l-137 -108l-43 33l145 151h73l145 -151z" />
    <glyph glyph-name="hcircumflex" unicode="&#x125;" horiz-adv-x="648" 
d="M576 0h-115v224h-273v-224h-116v534h116v-206h273v206h115v-534zM459 563l-137 108l-137 -108l-43 33l145 151h73l145 -151z" />
    <glyph glyph-name="Hbar" unicode="&#x126;" horiz-adv-x="818" 
d="M616 0v308h-414v-308h-130v717h130v-112h414v112h130v-717h-130zM616 433v99h-414v-99h414z" />
    <glyph glyph-name="hbar" unicode="&#x127;" horiz-adv-x="648" 
d="M576 0h-115v224h-273v-224h-116v534h116v-67h273v67h115v-534zM461 328v66h-273v-66h273z" />
    <glyph glyph-name="Itilde" unicode="&#x128;" horiz-adv-x="283" 
d="M76 0v717h130v-717h-130zM342 847q-15 -37 -41.5 -58.5t-71.5 -21.5q-24 0 -45.5 8.5t-42.5 18t-42.5 18t-45.5 8.5q-21 0 -32.5 -9.5t-18.5 -31.5l-59 34q16 39 43 59.5t70 20.5q24 0 45.5 -8.5t43 -18t43 -18t44.5 -8.5q21 0 32.5 9.5t18.5 31.5z" />
    <glyph glyph-name="itilde" unicode="&#x129;" horiz-adv-x="399" 
d="M142 0v534h114v-534h-114zM400 664q-15 -37 -41.5 -58.5t-71.5 -21.5q-24 0 -45.5 8.5t-42.5 18t-42.5 18t-45.5 8.5q-21 0 -32.5 -9.5t-18.5 -31.5l-59 34q16 39 43 59.5t70 20.5q24 0 45.5 -8.5t43 -18t43 -18t44.5 -8.5q21 0 32.5 9.5t18.5 31.5z" />
    <glyph glyph-name="Imacron" unicode="&#x12a;" horiz-adv-x="283" 
d="M76 0v717h130v-717h-130zM-27 802v73h339v-73h-339z" />
    <glyph glyph-name="imacron" unicode="&#x12b;" horiz-adv-x="339" 
d="M112 0v534h114v-534h-114zM1 619v73h339v-73h-339z" />
    <glyph glyph-name="Ibreve" unicode="&#x12c;" horiz-adv-x="283" 
d="M76 0v717h130v-717h-130zM349 916q-6 -35 -19.5 -65.5t-38 -54t-61 -37t-87.5 -13.5t-87.5 13.5t-61 37t-38 54t-19.5 65.5l83 10q11 -66 38.5 -94t84.5 -28t84 28t38 94z" />
    <glyph glyph-name="ibreve" unicode="&#x12d;" horiz-adv-x="412" 
d="M149 0v534h114v-534h-114zM413 733q-6 -35 -19.5 -65.5t-38 -54t-61 -37t-87.5 -13.5t-87.5 13.5t-61 37t-38 54t-19.5 65.5l83 10q11 -66 38.5 -94t84.5 -28t84 28t38 94z" />
    <glyph glyph-name="Iogonek" unicode="&#x12e;" horiz-adv-x="283" 
d="M226 -196q-42 -23 -82 -33.5t-93 -10.5q-23 0 -47.5 5.5t-44.5 17.5t-33 31.5t-13 48.5q0 31 14 52.5t37 36.5t52.5 24.5t59.5 16.5v724h130v-717q-49 -9 -88 -18.5t-66 -22.5t-41.5 -29.5t-14.5 -40.5q0 -15 7 -25t17.5 -15t22.5 -7t23 -2q30 0 62.5 6.5t57.5 21.5z" />
    <glyph glyph-name="iogonek" unicode="&#x12f;" horiz-adv-x="266" 
d="M210 -196q-42 -23 -82 -33.5t-93 -10.5q-23 0 -47.5 5.5t-44.5 17.5t-33 31.5t-13 48.5q0 33 16 55.5t41.5 37.5t57.5 24.5t64 15.5v538h114v-534q-49 -9 -88 -18.5t-66 -22.5t-41.5 -29.5t-14.5 -40.5q0 -15 7 -25t17.5 -15t22.5 -7t23 -2q30 0 62.5 6.5t57.5 21.5z" />
    <glyph glyph-name="Idotaccent" unicode="&#x130;" horiz-adv-x="283" 
d="M76 0v717h130v-717h-130zM143 786q-29 0 -46.5 15t-17.5 47t17.5 47.5t46.5 15.5q26 0 43 -15.5t17 -47.5t-17 -47t-43 -15z" />
    <glyph glyph-name="dotlessi" unicode="&#x131;" horiz-adv-x="266" 
d="M76 0v534h114v-534h-114z" />
    <glyph glyph-name="IJ" unicode="&#x132;" horiz-adv-x="891" 
d="M76 0v717h130v-717h-130zM697 717h129v-460q0 -81 -20 -134t-56 -84t-85.5 -43.5t-109.5 -12.5q-33 0 -69.5 5t-72 17.5t-67 33t-53.5 50.5l97 90q22 -39 66.5 -60t92.5 -21q33 0 60 8t46.5 26t30.5 46.5t11 69.5v469z" />
    <glyph glyph-name="ij" unicode="&#x133;" horiz-adv-x="753" 
d="M76 0v534h114v-534h-114zM574 534h115v-341q0 -60 -16 -100t-43.5 -64t-65 -33.5t-80.5 -9.5q-69 0 -124 26.5t-84 69.5l81 77q19 -32 49.5 -52t69.5 -20q45 0 71.5 22.5t26.5 80.5v344z" />
    <glyph glyph-name="Jcircumflex" unicode="&#x134;" horiz-adv-x="608" 
d="M414 717h129v-460q0 -81 -20 -134t-56 -84t-85.5 -43.5t-109.5 -12.5q-33 0 -69.5 5t-72 17.5t-67 33t-53.5 50.5l97 90q22 -39 66.5 -60t92.5 -21q33 0 60 8t46.5 26t30.5 46.5t11 69.5v469zM579 746l-137 108l-137 -108l-43 33l145 151h73l145 -151z" />
    <glyph glyph-name="jcircumflex" unicode="&#x135;" horiz-adv-x="487" 
d="M308 534h115v-341q0 -60 -16 -100t-43.5 -64t-65 -33.5t-80.5 -9.5q-69 0 -124 26.5t-84 69.5l81 77q19 -32 49.5 -52t69.5 -20q45 0 71.5 22.5t26.5 80.5v344zM459 563l-137 108l-137 -108l-43 33l145 151h73l145 -151z" />
    <glyph glyph-name="uni0136" unicode="&#x136;" horiz-adv-x="810" 
d="M440 443l359 -443h-172l-283 369l-142 -109v-260h-130v717h130v-311l403 311h184zM351 -210q36 31 38 72q-53 0 -53 53q0 26 18 38.5t51 12.5q37 0 52.5 -17t15.5 -48q0 -35 -23 -69.5t-61 -63.5z" />
    <glyph glyph-name="uni0137" unicode="&#x137;" horiz-adv-x="631" 
d="M355 331l266 -331h-141l-204 265l-88 -66v-199h-116v534h116v-222l279 222h143zM262 -210q36 31 38 72q-53 0 -53 53q0 26 18 38.5t51 12.5q37 0 52.5 -17t15.5 -48q0 -35 -23 -69.5t-61 -63.5z" />
    <glyph glyph-name="Lacute" unicode="&#x139;" horiz-adv-x="671" 
d="M72 0v717h130v-596h445v-121h-575zM49 746l-29 44l243 170l50 -71z" />
    <glyph glyph-name="lacute" unicode="&#x13a;" horiz-adv-x="526" 
d="M72 0v534h117v-426h314v-108h-431zM46 563l-29 44l243 170l50 -71z" />
    <glyph glyph-name="uni013B" unicode="&#x13b;" horiz-adv-x="671" 
d="M72 0v717h130v-596h445v-121h-575zM322 -210q36 31 38 72q-53 0 -53 53q0 26 18 38.5t51 12.5q37 0 52.5 -17t15.5 -48q0 -35 -23 -69.5t-61 -63.5z" />
    <glyph glyph-name="uni013C" unicode="&#x13c;" horiz-adv-x="526" 
d="M72 0v534h117v-426h314v-108h-431zM229 -210q36 31 38 72q-53 0 -53 53q0 26 18 38.5t51 12.5q37 0 52.5 -17t15.5 -48q0 -35 -23 -69.5t-61 -63.5z" />
    <glyph glyph-name="Lcaron" unicode="&#x13d;" horiz-adv-x="671" 
d="M72 0v717h130v-596h445v-121h-575zM347 607q18 14 30.5 36.5t12.5 47.5q-52 0 -52 57q0 55 70 55q38 0 54 -18.5t16 -52.5q0 -19 -6.5 -40t-18.5 -41.5t-29 -38.5t-38 -32z" />
    <glyph glyph-name="lcaron" unicode="&#x13e;" horiz-adv-x="526" 
d="M72 0v534h117v-426h314v-108h-431zM283 421q18 14 30.5 36.5t12.5 47.5q-52 0 -52 57q0 55 70 55q38 0 54 -18.5t16 -52.5q0 -19 -6.5 -40t-18.5 -41.5t-29 -38.5t-38 -32z" />
    <glyph glyph-name="Ldot" unicode="&#x13f;" horiz-adv-x="671" 
d="M72 0v717h130v-596h445v-121h-575zM412 339q-29 0 -46.5 15t-17.5 47t17.5 47.5t46.5 15.5q26 0 43 -15.5t17 -47.5t-17 -47t-43 -15z" />
    <glyph glyph-name="ldot" unicode="&#x140;" horiz-adv-x="526" 
d="M72 0v534h117v-426h314v-108h-431zM341 241q-29 0 -46.5 15t-17.5 47t17.5 47.5t46.5 15.5q26 0 43 -15.5t17 -47.5t-17 -47t-43 -15z" />
    <glyph glyph-name="Lslash" unicode="&#x141;" horiz-adv-x="697" 
d="M226 322v-201h448v-121h-578v272l-56 -22l-38 73l94 36v358h130v-307l145 57l38 -73z" />
    <glyph glyph-name="lslash" unicode="&#x142;" horiz-adv-x="532" 
d="M78 0v204l-43 -17l-33 65l76 30v252h116v-206l81 33l33 -65l-114 -46v-142h315v-108h-431z" />
    <glyph glyph-name="Nacute" unicode="&#x143;" horiz-adv-x="842" 
d="M646 0l-446 504v-504h-128v717h132l441 -523v523h127v-717h-126zM333 746l-29 44l243 170l50 -71z" />
    <glyph glyph-name="nacute" unicode="&#x144;" horiz-adv-x="664" 
d="M497 0l-311 347v-347h-114v534h107l303 -362v362h112v-534h-97zM244 563l-29 44l243 170l50 -71z" />
    <glyph glyph-name="uni0145" unicode="&#x145;" horiz-adv-x="842" 
d="M646 0l-446 504v-504h-128v717h132l441 -523v523h127v-717h-126zM367 -210q36 31 38 72q-53 0 -53 53q0 26 18 38.5t51 12.5q37 0 52.5 -17t15.5 -48q0 -35 -23 -69.5t-61 -63.5z" />
    <glyph glyph-name="uni0146" unicode="&#x146;" horiz-adv-x="664" 
d="M497 0l-311 347v-347h-114v534h107l303 -362v362h112v-534h-97zM278 -210q36 31 38 72q-53 0 -53 53q0 26 18 38.5t51 12.5q37 0 52.5 -17t15.5 -48q0 -35 -23 -69.5t-61 -63.5z" />
    <glyph glyph-name="Ncaron" unicode="&#x147;" horiz-adv-x="842" 
d="M646 0l-446 504v-504h-128v717h132l441 -523v523h127v-717h-126zM396 746l-139 156l40 34l124 -105l124 105l39 -33l-139 -157h-49z" />
    <glyph glyph-name="ncaron" unicode="&#x148;" horiz-adv-x="664" 
d="M497 0l-311 347v-347h-114v534h107l303 -362v362h112v-534h-97zM307 563l-139 156l40 34l124 -105l124 105l39 -33l-139 -157h-49z" />
    <glyph glyph-name="Eng" unicode="&#x14a;" horiz-adv-x="842" 
d="M772 0q-5 -71 -27 -117.5t-57.5 -73.5t-83 -38t-103.5 -11q-33 0 -69.5 5t-72 17.5t-67 33t-53.5 50.5l97 90q22 -39 66.5 -60t92.5 -21q60 0 101 29t48 98l-444 502v-504h-128v717h132l441 -523v523h127v-717z" />
    <glyph glyph-name="eng" unicode="&#x14b;" horiz-adv-x="664" 
d="M482 16l-296 331v-347h-114v534h107l303 -362v362h112v-567q0 -60 -16 -100t-43.5 -64t-65 -33.5t-80.5 -9.5q-69 0 -124 26.5t-84 69.5l81 77q19 -32 49.5 -52t69.5 -20q45 0 73 22.5t28 80.5v52z" />
    <glyph glyph-name="Omacron" unicode="&#x14c;" horiz-adv-x="941" 
d="M893 349q0 -84 -31.5 -151.5t-88 -115t-134.5 -73.5t-171 -26q-89 0 -165.5 26t-133 73.5t-89 115t-32.5 151.5t30 153.5t85.5 120t132.5 78.5t172 28q93 0 171 -28t134.5 -78.5t88 -120t31.5 -153.5zM757 349q0 59 -21.5 106.5t-60 81t-91.5 51.5t-116 18
q-62 0 -115 -18t-91.5 -51.5t-60 -81t-21.5 -106.5t22.5 -104.5t61.5 -77t91.5 -48t112.5 -16.5q63 0 116 16.5t91.5 48t60 77t21.5 104.5zM301 802v73h339v-73h-339z" />
    <glyph glyph-name="omacron" unicode="&#x14d;" horiz-adv-x="722" 
d="M673 260q0 -62 -23 -112.5t-64.5 -86.5t-99 -55.5t-126.5 -19.5q-68 0 -125.5 19.5t-99 55.5t-64.5 86.5t-23 112.5t22.5 114t64 90t99 59t126.5 21t126.5 -21t99 -59t64.5 -90t23 -114zM558 260q0 39 -13.5 71.5t-39 55.5t-62.5 36t-83 13q-94 0 -145 -49t-51 -127
q0 -79 51 -123t145 -44t146 44t52 123zM191 619v73h339v-73h-339z" />
    <glyph glyph-name="Obreve" unicode="&#x14e;" horiz-adv-x="941" 
d="M893 349q0 -84 -31.5 -151.5t-88 -115t-134.5 -73.5t-171 -26q-89 0 -165.5 26t-133 73.5t-89 115t-32.5 151.5t30 153.5t85.5 120t132.5 78.5t172 28q93 0 171 -28t134.5 -78.5t88 -120t31.5 -153.5zM757 349q0 59 -21.5 106.5t-60 81t-91.5 51.5t-116 18
q-62 0 -115 -18t-91.5 -51.5t-60 -81t-21.5 -106.5t22.5 -104.5t61.5 -77t91.5 -48t112.5 -16.5q63 0 116 16.5t91.5 48t60 77t21.5 104.5zM676 916q-6 -35 -19.5 -65.5t-38 -54t-61 -37t-87.5 -13.5t-87.5 13.5t-61 37t-38 54t-19.5 65.5l83 10q11 -66 38.5 -94t84.5 -28
t84 28t38 94z" />
    <glyph glyph-name="obreve" unicode="&#x14f;" horiz-adv-x="722" 
d="M673 260q0 -62 -23 -112.5t-64.5 -86.5t-99 -55.5t-126.5 -19.5q-68 0 -125.5 19.5t-99 55.5t-64.5 86.5t-23 112.5t22.5 114t64 90t99 59t126.5 21t126.5 -21t99 -59t64.5 -90t23 -114zM558 260q0 39 -13.5 71.5t-39 55.5t-62.5 36t-83 13q-94 0 -145 -49t-51 -127
q0 -79 51 -123t145 -44t146 44t52 123zM567 733q-6 -35 -19.5 -65.5t-38 -54t-61 -37t-87.5 -13.5t-87.5 13.5t-61 37t-38 54t-19.5 65.5l83 10q11 -66 38.5 -94t84.5 -28t84 28t38 94z" />
    <glyph glyph-name="Ohungarumlaut" unicode="&#x150;" horiz-adv-x="941" 
d="M893 349q0 -84 -31.5 -151.5t-88 -115t-134.5 -73.5t-171 -26q-89 0 -165.5 26t-133 73.5t-89 115t-32.5 151.5t30 153.5t85.5 120t132.5 78.5t172 28q93 0 171 -28t134.5 -78.5t88 -120t31.5 -153.5zM757 349q0 59 -21.5 106.5t-60 81t-91.5 51.5t-116 18
q-62 0 -115 -18t-91.5 -51.5t-60 -81t-21.5 -106.5t22.5 -104.5t61.5 -77t91.5 -48t112.5 -16.5q63 0 116 16.5t91.5 48t60 77t21.5 104.5zM507 769l89 189l72 -35l-114 -177zM332 769l89 189l72 -35l-115 -177z" />
    <glyph glyph-name="ohungarumlaut" unicode="&#x151;" horiz-adv-x="722" 
d="M673 260q0 -62 -23 -112.5t-64.5 -86.5t-99 -55.5t-126.5 -19.5q-68 0 -125.5 19.5t-99 55.5t-64.5 86.5t-23 112.5t22.5 114t64 90t99 59t126.5 21t126.5 -21t99 -59t64.5 -90t23 -114zM558 260q0 39 -13.5 71.5t-39 55.5t-62.5 36t-83 13q-94 0 -145 -49t-51 -127
q0 -79 51 -123t145 -44t146 44t52 123zM398 586l89 189l72 -35l-114 -177zM223 586l89 189l72 -35l-115 -177z" />
    <glyph glyph-name="OE" unicode="&#x152;" horiz-adv-x="1385" 
d="M754 0v108q-42 -54 -115 -89.5t-173 -35.5q-89 0 -165 26t-132.5 73.5t-88.5 115t-32 151.5t29.5 153.5t84.5 120t132 78.5t172 28q100 0 171.5 -36t116.5 -99v123h574v-119h-444v-181h394v-96h-394v-200h455v-121h-585zM748 349q0 58 -20.5 105.5t-58 81t-89 51.5
t-114.5 18q-62 0 -114.5 -18t-90 -51.5t-58.5 -81t-21 -105.5q0 -59 22 -104.5t60 -77t90 -47.5t112 -16q62 0 114 16t89.5 47.5t58 77t20.5 104.5z" />
    <glyph glyph-name="oe" unicode="&#x153;" horiz-adv-x="1043" 
d="M557 0v80q-12 -20 -34 -37t-49.5 -30t-58 -20t-60.5 -7q-66 0 -122 19.5t-97.5 55.5t-64.5 86.5t-23 112.5q0 59 21.5 111t61 90.5t96.5 60.5t128 22q61 0 116.5 -24t85.5 -74v88h432v-103h-317v-118h267v-74h-267v-134h324v-105h-439zM543 260q0 37 -14 69t-38.5 55
t-59 36.5t-76.5 13.5q-43 0 -78 -13.5t-59.5 -37t-38 -55t-13.5 -68.5q0 -36 14 -66.5t39 -52t59.5 -34t76.5 -12.5q41 0 75.5 12t59.5 33.5t39 52t14 67.5z" />
    <glyph glyph-name="Racute" unicode="&#x154;" horiz-adv-x="808" 
d="M640 0l-197 250h-241v-250h-130v717h389q74 0 124 -18t80 -49.5t42.5 -74t12.5 -91.5q0 -75 -40.5 -130.5t-115.5 -72.5l234 -281h-158zM202 598v-240h250q28 0 53 7t44.5 21.5t31 37.5t11.5 56q0 32 -10.5 54.5t-29.5 36.5t-45 20.5t-56 6.5h-249zM286 746l-29 44
l243 170l50 -71z" />
    <glyph glyph-name="racute" unicode="&#x155;" horiz-adv-x="635" 
d="M186 431v-161h170q42 0 66 21.5t24 59.5t-22.5 59t-67.5 21h-170zM484 0l-142 182h-156v-182h-114v534h293q97 0 145 -48.5t48 -127.5q0 -57 -28 -94.5t-79 -55.5l173 -208h-140zM200 563l-29 44l243 170l50 -71z" />
    <glyph glyph-name="uni0156" unicode="&#x156;" horiz-adv-x="808" 
d="M640 0l-197 250h-241v-250h-130v717h389q74 0 124 -18t80 -49.5t42.5 -74t12.5 -91.5q0 -75 -40.5 -130.5t-115.5 -72.5l234 -281h-158zM202 598v-240h250q28 0 53 7t44.5 21.5t31 37.5t11.5 56q0 32 -10.5 54.5t-29.5 36.5t-45 20.5t-56 6.5h-249zM350 -210q36 31 38 72
q-53 0 -53 53q0 26 18 38.5t51 12.5q37 0 52.5 -17t15.5 -48q0 -35 -23 -69.5t-61 -63.5z" />
    <glyph glyph-name="uni0157" unicode="&#x157;" horiz-adv-x="635" 
d="M186 431v-161h170q42 0 66 21.5t24 59.5t-22.5 59t-67.5 21h-170zM484 0l-142 182h-156v-182h-114v534h293q97 0 145 -48.5t48 -127.5q0 -57 -28 -94.5t-79 -55.5l173 -208h-140zM264 -210q36 31 38 72q-53 0 -53 53q0 26 18 38.5t51 12.5q37 0 52.5 -17t15.5 -48
q0 -35 -23 -69.5t-61 -63.5z" />
    <glyph glyph-name="Rcaron" unicode="&#x158;" horiz-adv-x="808" 
d="M640 0l-197 250h-241v-250h-130v717h389q74 0 124 -18t80 -49.5t42.5 -74t12.5 -91.5q0 -75 -40.5 -130.5t-115.5 -72.5l234 -281h-158zM202 598v-240h250q28 0 53 7t44.5 21.5t31 37.5t11.5 56q0 32 -10.5 54.5t-29.5 36.5t-45 20.5t-56 6.5h-249zM339 746l-139 156
l40 34l124 -105l124 105l39 -33l-139 -157h-49z" />
    <glyph glyph-name="rcaron" unicode="&#x159;" horiz-adv-x="635" 
d="M186 431v-161h170q42 0 66 21.5t24 59.5t-22.5 59t-67.5 21h-170zM484 0l-142 182h-156v-182h-114v534h293q97 0 145 -48.5t48 -127.5q0 -57 -28 -94.5t-79 -55.5l173 -208h-140zM293 563l-139 156l40 34l124 -105l124 105l39 -33l-139 -157h-49z" />
    <glyph glyph-name="Sacute" unicode="&#x15a;" horiz-adv-x="701" 
d="M562 540q-45 38 -101 56t-114 18q-22 0 -49.5 -3.5t-52 -13.5t-41.5 -28t-17 -47q0 -28 14.5 -45t39 -27.5t56 -17t64.5 -12.5q57 -10 111 -23.5t95.5 -37.5t66.5 -62t25 -98q0 -65 -28.5 -106.5t-73.5 -65.5t-99 -33.5t-105 -9.5q-45 0 -91 7t-89 22.5t-80 41.5t-64 65
l94 87q20 -30 46.5 -50.5t57 -33t64.5 -18.5t68 -6q25 0 55.5 3t56.5 13t43.5 29.5t17.5 51.5t-20.5 51t-54 31t-76 20t-87.5 16.5t-87.5 21.5t-76 35t-54 56t-20.5 85q0 60 27.5 101.5t70 67t94 37t100.5 11.5q75 0 150.5 -17t136.5 -65zM263 746l-29 44l243 170l50 -71z
" />
    <glyph glyph-name="sacute" unicode="&#x15b;" horiz-adv-x="550" 
d="M433 389q-31 31 -75 46.5t-89 15.5q-14 0 -33 -3.5t-36 -11t-29 -18.5t-12 -27q0 -29 26 -42.5t64.5 -22t83.5 -16t83.5 -24t64.5 -47t26 -84.5q0 -50 -20 -82.5t-52.5 -51.5t-74.5 -26.5t-87 -7.5q-75 0 -140.5 24t-104.5 80l82 75q23 -38 68 -62t106 -24q17 0 37 3
t37.5 10.5t29 20t11.5 30.5q0 30 -25.5 43.5t-64 22t-83.5 16t-83.5 24.5t-64 48t-25.5 86q0 43 19 73.5t49.5 49.5t70 28t80.5 9q60 0 118.5 -14.5t106.5 -52.5zM187 563l-29 44l243 170l50 -71z" />
    <glyph glyph-name="Scircumflex" unicode="&#x15c;" horiz-adv-x="701" 
d="M562 540q-45 38 -101 56t-114 18q-22 0 -49.5 -3.5t-52 -13.5t-41.5 -28t-17 -47q0 -28 14.5 -45t39 -27.5t56 -17t64.5 -12.5q57 -10 111 -23.5t95.5 -37.5t66.5 -62t25 -98q0 -65 -28.5 -106.5t-73.5 -65.5t-99 -33.5t-105 -9.5q-45 0 -91 7t-89 22.5t-80 41.5t-64 65
l94 87q20 -30 46.5 -50.5t57 -33t64.5 -18.5t68 -6q25 0 55.5 3t56.5 13t43.5 29.5t17.5 51.5t-20.5 51t-54 31t-76 20t-87.5 16.5t-87.5 21.5t-76 35t-54 56t-20.5 85q0 60 27.5 101.5t70 67t94 37t100.5 11.5q75 0 150.5 -17t136.5 -65zM486 746l-137 108l-137 -108
l-43 33l145 151h73l145 -151z" />
    <glyph glyph-name="scircumflex" unicode="&#x15d;" horiz-adv-x="550" 
d="M433 389q-31 31 -75 46.5t-89 15.5q-14 0 -33 -3.5t-36 -11t-29 -18.5t-12 -27q0 -29 26 -42.5t64.5 -22t83.5 -16t83.5 -24t64.5 -47t26 -84.5q0 -50 -20 -82.5t-52.5 -51.5t-74.5 -26.5t-87 -7.5q-75 0 -140.5 24t-104.5 80l82 75q23 -38 68 -62t106 -24q17 0 37 3
t37.5 10.5t29 20t11.5 30.5q0 30 -25.5 43.5t-64 22t-83.5 16t-83.5 24.5t-64 48t-25.5 86q0 43 19 73.5t49.5 49.5t70 28t80.5 9q60 0 118.5 -14.5t106.5 -52.5zM410 563l-137 108l-137 -108l-43 33l145 151h73l145 -151z" />
    <glyph glyph-name="Scedilla" unicode="&#x15e;" horiz-adv-x="701" 
d="M562 540q-45 38 -101 56t-114 18q-22 0 -49.5 -3.5t-52 -13.5t-41.5 -28t-17 -47q0 -28 14.5 -45t39 -27.5t56 -17t64.5 -12.5q57 -10 111 -23.5t95.5 -37.5t66.5 -62t25 -98q0 -65 -28.5 -106.5t-73.5 -65.5t-99 -33.5t-105 -9.5q-45 0 -91 7t-89 22.5t-80 41.5t-64 65
l94 87q20 -30 46.5 -50.5t57 -33t64.5 -18.5t68 -6q25 0 55.5 3t56.5 13t43.5 29.5t17.5 51.5t-20.5 51t-54 31t-76 20t-87.5 16.5t-87.5 21.5t-76 35t-54 56t-20.5 85q0 60 27.5 101.5t70 67t94 37t100.5 11.5q75 0 150.5 -17t136.5 -65zM297 -210q36 31 38 72
q-53 0 -53 53q0 26 18 38.5t51 12.5q37 0 52.5 -17t15.5 -48q0 -35 -23 -69.5t-61 -63.5z" />
    <glyph glyph-name="scedilla" unicode="&#x15f;" horiz-adv-x="550" 
d="M433 389q-31 31 -75 46.5t-89 15.5q-14 0 -33 -3.5t-36 -11t-29 -18.5t-12 -27q0 -29 26 -42.5t64.5 -22t83.5 -16t83.5 -24t64.5 -47t26 -84.5q0 -50 -20 -82.5t-52.5 -51.5t-74.5 -26.5t-87 -7.5q-75 0 -140.5 24t-104.5 80l82 75q23 -38 68 -62t106 -24q17 0 37 3
t37.5 10.5t29 20t11.5 30.5q0 30 -25.5 43.5t-64 22t-83.5 16t-83.5 24.5t-64 48t-25.5 86q0 43 19 73.5t49.5 49.5t70 28t80.5 9q60 0 118.5 -14.5t106.5 -52.5zM221 -210q36 31 38 72q-53 0 -53 53q0 26 18 38.5t51 12.5q37 0 52.5 -17t15.5 -48q0 -35 -23 -69.5
t-61 -63.5z" />
    <glyph glyph-name="Scaron" unicode="&#x160;" horiz-adv-x="701" 
d="M562 540q-45 38 -101 56t-114 18q-22 0 -49.5 -3.5t-52 -13.5t-41.5 -28t-17 -47q0 -28 14.5 -45t39 -27.5t56 -17t64.5 -12.5q57 -10 111 -23.5t95.5 -37.5t66.5 -62t25 -98q0 -65 -28.5 -106.5t-73.5 -65.5t-99 -33.5t-105 -9.5q-45 0 -91 7t-89 22.5t-80 41.5t-64 65
l94 87q20 -30 46.5 -50.5t57 -33t64.5 -18.5t68 -6q25 0 55.5 3t56.5 13t43.5 29.5t17.5 51.5t-20.5 51t-54 31t-76 20t-87.5 16.5t-87.5 21.5t-76 35t-54 56t-20.5 85q0 60 27.5 101.5t70 67t94 37t100.5 11.5q75 0 150.5 -17t136.5 -65zM326 746l-139 156l40 34l124 -105
l124 105l39 -33l-139 -157h-49z" />
    <glyph glyph-name="scaron" unicode="&#x161;" horiz-adv-x="550" 
d="M433 389q-31 31 -75 46.5t-89 15.5q-14 0 -33 -3.5t-36 -11t-29 -18.5t-12 -27q0 -29 26 -42.5t64.5 -22t83.5 -16t83.5 -24t64.5 -47t26 -84.5q0 -50 -20 -82.5t-52.5 -51.5t-74.5 -26.5t-87 -7.5q-75 0 -140.5 24t-104.5 80l82 75q23 -38 68 -62t106 -24q17 0 37 3
t37.5 10.5t29 20t11.5 30.5q0 30 -25.5 43.5t-64 22t-83.5 16t-83.5 24.5t-64 48t-25.5 86q0 43 19 73.5t49.5 49.5t70 28t80.5 9q60 0 118.5 -14.5t106.5 -52.5zM250 563l-139 156l40 34l124 -105l124 105l39 -33l-139 -157h-49z" />
    <glyph glyph-name="uni0162" unicode="&#x162;" horiz-adv-x="707" 
d="M288 0v598h-270v119h670v-119h-270v-598h-130zM300 -210q36 31 38 72q-53 0 -53 53q0 26 18 38.5t51 12.5q37 0 52.5 -17t15.5 -48q0 -35 -23 -69.5t-61 -63.5z" />
    <glyph glyph-name="uni0163" unicode="&#x163;" horiz-adv-x="532" 
d="M208 0v429h-190v105h495v-105h-188v-429h-117zM212 -210q36 31 38 72q-53 0 -53 53q0 26 18 38.5t51 12.5q37 0 52.5 -17t15.5 -48q0 -35 -23 -69.5t-61 -63.5z" />
    <glyph glyph-name="Tcaron" unicode="&#x164;" horiz-adv-x="707" 
d="M288 0v598h-270v119h670v-119h-270v-598h-130zM329 746l-139 156l40 34l124 -105l124 105l39 -33l-139 -157h-49z" />
    <glyph glyph-name="tcaron" unicode="&#x165;" horiz-adv-x="532" 
d="M208 0v429h-190v105h495v-105h-188v-429h-117zM241 563l-139 156l40 34l124 -105l124 105l39 -33l-139 -157h-49z" />
    <glyph glyph-name="Tbar" unicode="&#x166;" horiz-adv-x="707" 
d="M288 0v268h-126v91h126v239h-270v119h670v-119h-270v-239h127v-91h-127v-268h-130z" />
    <glyph glyph-name="tbar" unicode="&#x167;" horiz-adv-x="532" 
d="M208 0v178h-94v91h94v160h-190v105h495v-105h-188v-160h92v-91h-92v-178h-117z" />
    <glyph glyph-name="Utilde" unicode="&#x168;" horiz-adv-x="831" 
d="M636 717h130v-441q0 -83 -30 -139t-79 -90.5t-112 -49t-130 -14.5t-130 14.5t-112 49t-79 90.5t-30 139v441h129v-436q0 -91 59.5 -134.5t162.5 -43.5t162 43.5t59 134.5v436zM615 847q-15 -37 -41.5 -58.5t-71.5 -21.5q-24 0 -45.5 8.5t-42.5 18t-42.5 18t-45.5 8.5
q-21 0 -32.5 -9.5t-18.5 -31.5l-59 34q16 39 43 59.5t70 20.5q24 0 45.5 -8.5t43 -18t43 -18t44.5 -8.5q21 0 32.5 9.5t18.5 31.5z" />
    <glyph glyph-name="utilde" unicode="&#x169;" horiz-adv-x="653" 
d="M473 534h116v-333q0 -62 -21 -103t-57 -66t-83.5 -35.5t-99.5 -10.5q-53 0 -101 10.5t-84 35.5t-57.5 66t-21.5 103v333h115v-315q0 -66 38.5 -96t110.5 -30q69 0 107 30t38 96v315zM526 664q-15 -37 -41.5 -58.5t-71.5 -21.5q-24 0 -45.5 8.5t-42.5 18t-42.5 18
t-45.5 8.5q-21 0 -32.5 -9.5t-18.5 -31.5l-59 34q16 39 43 59.5t70 20.5q24 0 45.5 -8.5t43 -18t43 -18t44.5 -8.5q21 0 32.5 9.5t18.5 31.5z" />
    <glyph glyph-name="Umacron" unicode="&#x16a;" horiz-adv-x="831" 
d="M636 717h130v-441q0 -83 -30 -139t-79 -90.5t-112 -49t-130 -14.5t-130 14.5t-112 49t-79 90.5t-30 139v441h129v-436q0 -91 59.5 -134.5t162.5 -43.5t162 43.5t59 134.5v436zM246 802v73h339v-73h-339z" />
    <glyph glyph-name="umacron" unicode="&#x16b;" horiz-adv-x="653" 
d="M473 534h116v-333q0 -62 -21 -103t-57 -66t-83.5 -35.5t-99.5 -10.5q-53 0 -101 10.5t-84 35.5t-57.5 66t-21.5 103v333h115v-315q0 -66 38.5 -96t110.5 -30q69 0 107 30t38 96v315zM157 619v73h339v-73h-339z" />
    <glyph glyph-name="Ubreve" unicode="&#x16c;" horiz-adv-x="831" 
d="M636 717h130v-441q0 -83 -30 -139t-79 -90.5t-112 -49t-130 -14.5t-130 14.5t-112 49t-79 90.5t-30 139v441h129v-436q0 -91 59.5 -134.5t162.5 -43.5t162 43.5t59 134.5v436zM621 916q-6 -35 -19.5 -65.5t-38 -54t-61 -37t-87.5 -13.5t-87.5 13.5t-61 37t-38 54
t-19.5 65.5l83 10q11 -66 38.5 -94t84.5 -28t84 28t38 94z" />
    <glyph glyph-name="ubreve" unicode="&#x16d;" horiz-adv-x="653" 
d="M473 534h116v-333q0 -62 -21 -103t-57 -66t-83.5 -35.5t-99.5 -10.5q-53 0 -101 10.5t-84 35.5t-57.5 66t-21.5 103v333h115v-315q0 -66 38.5 -96t110.5 -30q69 0 107 30t38 96v315zM532 733q-6 -35 -19.5 -65.5t-38 -54t-61 -37t-87.5 -13.5t-87.5 13.5t-61 37t-38 54
t-19.5 65.5l83 10q11 -66 38.5 -94t84.5 -28t84 28t38 94z" />
    <glyph glyph-name="Uring" unicode="&#x16e;" horiz-adv-x="831" 
d="M636 717h130v-441q0 -83 -30 -139t-79 -90.5t-112 -49t-130 -14.5t-130 14.5t-112 49t-79 90.5t-30 139v441h129v-436q0 -91 59.5 -134.5t162.5 -43.5t162 43.5t59 134.5v436zM540 854q0 -24 -9.5 -44t-26 -34t-39 -22t-49.5 -8q-54 0 -89.5 30t-35.5 78q0 54 35.5 80
t89.5 26q25 0 47.5 -6.5t39.5 -19.5t27 -33t10 -47zM487 854q0 27 -19.5 40t-51.5 13t-51 -13t-19 -40q0 -26 19 -39.5t51 -13.5t51.5 13.5t19.5 39.5z" />
    <glyph glyph-name="uring" unicode="&#x16f;" horiz-adv-x="653" 
d="M473 534h116v-333q0 -62 -21 -103t-57 -66t-83.5 -35.5t-99.5 -10.5q-53 0 -101 10.5t-84 35.5t-57.5 66t-21.5 103v333h115v-315q0 -66 38.5 -96t110.5 -30q69 0 107 30t38 96v315zM451 671q0 -24 -9.5 -44t-26 -34t-39 -22t-49.5 -8q-54 0 -89.5 30t-35.5 78
q0 54 35.5 80t89.5 26q25 0 47.5 -6.5t39.5 -19.5t27 -33t10 -47zM398 671q0 27 -19.5 40t-51.5 13t-51 -13t-19 -40q0 -26 19 -39.5t51 -13.5t51.5 13.5t19.5 39.5z" />
    <glyph glyph-name="Uhungarumlaut" unicode="&#x170;" horiz-adv-x="831" 
d="M636 717h130v-441q0 -83 -30 -139t-79 -90.5t-112 -49t-130 -14.5t-130 14.5t-112 49t-79 90.5t-30 139v441h129v-436q0 -91 59.5 -134.5t162.5 -43.5t162 43.5t59 134.5v436zM452 769l89 189l72 -35l-114 -177zM277 769l89 189l72 -35l-115 -177z" />
    <glyph glyph-name="uhungarumlaut" unicode="&#x171;" horiz-adv-x="653" 
d="M473 534h116v-333q0 -62 -21 -103t-57 -66t-83.5 -35.5t-99.5 -10.5q-53 0 -101 10.5t-84 35.5t-57.5 66t-21.5 103v333h115v-315q0 -66 38.5 -96t110.5 -30q69 0 107 30t38 96v315zM363 586l89 189l72 -35l-114 -177zM188 586l89 189l72 -35l-115 -177z" />
    <glyph glyph-name="Uogonek" unicode="&#x172;" horiz-adv-x="831" 
d="M572 -196q-42 -23 -82 -33.5t-93 -10.5q-23 0 -47.5 5.5t-44.5 17.5t-33 31.5t-13 48.5q0 26 10.5 45.5t27.5 34t40 24.5t48 17q-63 3 -121 19.5t-102.5 51t-71 89t-26.5 132.5v441h129v-436q0 -91 59.5 -134.5t162.5 -43.5t162 43.5t59 134.5v436h130v-441
q0 -72 -22.5 -122t-61 -83.5t-89 -53t-105.5 -29.5q-70 -13 -108 -36.5t-38 -62.5q0 -15 7 -25t17.5 -15t22.5 -7t23 -2q30 0 62.5 6.5t57.5 21.5z" />
    <glyph glyph-name="uogonek" unicode="&#x173;" horiz-adv-x="653" 
d="M459 -196q-42 -23 -82 -33.5t-93 -10.5q-23 0 -47.5 5.5t-44.5 17.5t-33 31.5t-13 48.5q0 28 11.5 48t31 35t45 25t52.5 17q-46 4 -86.5 17t-70.5 38t-47.5 63.5t-17.5 94.5v333h115v-315q0 -66 38.5 -96t110.5 -30q69 0 107 30t38 96v315h116v-333q0 -54 -16 -91
t-44 -61.5t-66 -38.5t-81 -21q-73 -12 -113 -36t-40 -64q0 -15 7 -25t17.5 -15t22.5 -7t23 -2q30 0 62.5 6.5t57.5 21.5z" />
    <glyph glyph-name="Wcircumflex" unicode="&#x174;" horiz-adv-x="1233" 
d="M833 0l-211 547l-214 -547h-106l-288 717h154l191 -515l201 515h132l194 -515l185 515h147l-290 -717h-95zM762 746l-137 108l-137 -108l-43 33l145 151h73l145 -151z" />
    <glyph glyph-name="wcircumflex" unicode="&#x175;" horiz-adv-x="903" 
d="M602 0l-146 378l-148 -378h-81l-213 534h128l128 -357l137 357h102l134 -357l123 357h122l-211 -534h-75zM597 563l-137 108l-137 -108l-43 33l145 151h73l145 -151z" />
    <glyph glyph-name="Ycircumflex" unicode="&#x176;" horiz-adv-x="844" 
d="M360 0v289l-353 428h168l252 -314l250 314h160l-348 -429v-288h-129zM561 746l-137 108l-137 -108l-43 33l145 151h73l145 -151z" />
    <glyph glyph-name="ycircumflex" unicode="&#x177;" horiz-adv-x="646" 
d="M271 0v213l-264 321h143l178 -224l176 224h134l-253 -321v-213h-114zM458 563l-137 108l-137 -108l-43 33l145 151h73l145 -151z" />
    <glyph glyph-name="Ydieresis" unicode="&#x178;" horiz-adv-x="844" 
d="M360 0v289l-353 428h168l252 -314l250 314h160l-348 -429v-288h-129zM298 786q-29 0 -46.5 15t-17.5 47t17.5 47.5t46.5 15.5q26 0 43 -15.5t17 -47.5t-17 -47t-43 -15zM548 786q-29 0 -46 15t-17 47t17 47.5t46 15.5q61 0 61 -63q0 -62 -61 -62z" />
    <glyph glyph-name="Zacute" unicode="&#x179;" horiz-adv-x="718" 
d="M61 0l-25 102l445 492h-423l5 123h581l33 -89l-442 -504h432v-124h-606zM271 746l-29 44l243 170l50 -71z" />
    <glyph glyph-name="zacute" unicode="&#x17a;" horiz-adv-x="569" 
d="M54 0l-18 87l327 348h-313l5 99h443l29 -75l-313 -350h297v-109h-457zM197 563l-29 44l243 170l50 -71z" />
    <glyph glyph-name="Zdotaccent" unicode="&#x17b;" horiz-adv-x="718" 
d="M61 0l-25 102l445 492h-423l5 123h581l33 -89l-442 -504h432v-124h-606zM361 786q-29 0 -46.5 15t-17.5 47t17.5 47.5t46.5 15.5q26 0 43 -15.5t17 -47.5t-17 -47t-43 -15z" />
    <glyph glyph-name="zdotaccent" unicode="&#x17c;" horiz-adv-x="569" 
d="M54 0l-18 87l327 348h-313l5 99h443l29 -75l-313 -350h297v-109h-457zM286 603q-29 0 -46.5 15t-17.5 47t17.5 47.5t46.5 15.5q26 0 43 -15.5t17 -47.5t-17 -47t-43 -15z" />
    <glyph glyph-name="Zcaron" unicode="&#x17d;" horiz-adv-x="718" 
d="M61 0l-25 102l445 492h-423l5 123h581l33 -89l-442 -504h432v-124h-606zM334 746l-139 156l40 34l124 -105l124 105l39 -33l-139 -157h-49z" />
    <glyph glyph-name="zcaron" unicode="&#x17e;" horiz-adv-x="569" 
d="M54 0l-18 87l327 348h-313l5 99h443l29 -75l-313 -350h297v-109h-457zM260 563l-139 156l40 34l124 -105l124 105l39 -33l-139 -157h-49z" />
    <glyph glyph-name="florin" unicode="&#x192;" horiz-adv-x="425" 
d="M255 430l-61 -399q-3 -22 -11.5 -45.5t-25 -42.5t-41.5 -31.5t-61 -12.5q-12 0 -22 3v84q9 -3 18 -3q17 0 28 6t18.5 15t11 20t5.5 22l60 384h-83v73h94l15 95q4 27 13.5 51t26 42t41 28t58.5 10q38 0 63 -11v-87q-11 8 -24 11t-35 3q-18 0 -29.5 -5.5t-18.5 -14.5
t-10.5 -20t-5.5 -23l-12 -79h100v-73h-112z" />
    <glyph glyph-name="uni0218" unicode="&#x218;" horiz-adv-x="701" 
d="M562 540q-45 38 -101 56t-114 18q-22 0 -49.5 -3.5t-52 -13.5t-41.5 -28t-17 -47q0 -28 14.5 -45t39 -27.5t56 -17t64.5 -12.5q57 -10 111 -23.5t95.5 -37.5t66.5 -62t25 -98q0 -65 -28.5 -106.5t-73.5 -65.5t-99 -33.5t-105 -9.5q-45 0 -91 7t-89 22.5t-80 41.5t-64 65
l94 87q20 -30 46.5 -50.5t57 -33t64.5 -18.5t68 -6q25 0 55.5 3t56.5 13t43.5 29.5t17.5 51.5t-20.5 51t-54 31t-76 20t-87.5 16.5t-87.5 21.5t-76 35t-54 56t-20.5 85q0 60 27.5 101.5t70 67t94 37t100.5 11.5q75 0 150.5 -17t136.5 -65zM297 -210q36 31 38 72
q-53 0 -53 53q0 26 18 38.5t51 12.5q37 0 52.5 -17t15.5 -48q0 -35 -23 -69.5t-61 -63.5z" />
    <glyph glyph-name="uni0219" unicode="&#x219;" horiz-adv-x="550" 
d="M433 389q-31 31 -75 46.5t-89 15.5q-14 0 -33 -3.5t-36 -11t-29 -18.5t-12 -27q0 -29 26 -42.5t64.5 -22t83.5 -16t83.5 -24t64.5 -47t26 -84.5q0 -50 -20 -82.5t-52.5 -51.5t-74.5 -26.5t-87 -7.5q-75 0 -140.5 24t-104.5 80l82 75q23 -38 68 -62t106 -24q17 0 37 3
t37.5 10.5t29 20t11.5 30.5q0 30 -25.5 43.5t-64 22t-83.5 16t-83.5 24.5t-64 48t-25.5 86q0 43 19 73.5t49.5 49.5t70 28t80.5 9q60 0 118.5 -14.5t106.5 -52.5zM221 -210q36 31 38 72q-53 0 -53 53q0 26 18 38.5t51 12.5q37 0 52.5 -17t15.5 -48q0 -35 -23 -69.5
t-61 -63.5z" />
    <glyph glyph-name="uni021A" unicode="&#x21a;" horiz-adv-x="707" 
d="M288 0v598h-270v119h670v-119h-270v-598h-130zM300 -210q36 31 38 72q-53 0 -53 53q0 26 18 38.5t51 12.5q37 0 52.5 -17t15.5 -48q0 -35 -23 -69.5t-61 -63.5z" />
    <glyph glyph-name="uni021B" unicode="&#x21b;" horiz-adv-x="532" 
d="M208 0v429h-190v105h495v-105h-188v-429h-117zM212 -210q36 31 38 72q-53 0 -53 53q0 26 18 38.5t51 12.5q37 0 52.5 -17t15.5 -48q0 -35 -23 -69.5t-61 -63.5z" />
    <glyph glyph-name="circumflex" unicode="&#x2c6;" horiz-adv-x="508" 
d="M389 563l-137 108l-137 -108l-43 33l145 151h73l145 -151z" />
    <glyph glyph-name="caron" unicode="&#x2c7;" horiz-adv-x="472" 
d="M211 563l-139 156l40 34l124 -105l124 105l39 -33l-139 -157h-49z" />
    <glyph glyph-name="breve" unicode="&#x2d8;" horiz-adv-x="556" 
d="M484 733q-6 -35 -19.5 -65.5t-38 -54t-61 -37t-87.5 -13.5t-87.5 13.5t-61 37t-38 54t-19.5 65.5l83 10q11 -66 38.5 -94t84.5 -28t84 28t38 94z" />
    <glyph glyph-name="dotaccent" unicode="&#x2d9;" horiz-adv-x="258" 
d="M131 603q-29 0 -46.5 15t-17.5 47t17.5 47.5t46.5 15.5q26 0 43 -15.5t17 -47.5t-17 -47t-43 -15z" />
    <glyph glyph-name="ring" unicode="&#x2da;" horiz-adv-x="393" 
d="M321 671q0 -24 -9.5 -44t-26 -34t-39 -22t-49.5 -8q-54 0 -89.5 30t-35.5 78q0 54 35.5 80t89.5 26q25 0 47.5 -6.5t39.5 -19.5t27 -33t10 -47zM268 671q0 27 -19.5 40t-51.5 13t-51 -13t-19 -40q0 -26 19 -39.5t51 -13.5t51.5 13.5t19.5 39.5z" />
    <glyph glyph-name="ogonek" unicode="&#x2db;" horiz-adv-x="457" 
d="M385 -196q-42 -23 -82 -33.5t-93 -10.5q-23 0 -47.5 5.5t-44.5 17.5t-33 31.5t-13 48.5q0 35 18.5 58.5t48 39t65 24.5t70.5 15h91q-49 -9 -88 -18.5t-66 -22.5t-41.5 -29.5t-14.5 -40.5q0 -15 7 -25t17.5 -15t22.5 -7t23 -2q30 0 62.5 6.5t57.5 21.5z" />
    <glyph glyph-name="tilde" unicode="&#x2dc;" horiz-adv-x="544" 
d="M471 664q-15 -37 -41.5 -58.5t-71.5 -21.5q-24 0 -45.5 8.5t-42.5 18t-42.5 18t-45.5 8.5q-21 0 -32.5 -9.5t-18.5 -31.5l-59 34q16 39 43 59.5t70 20.5q24 0 45.5 -8.5t43 -18t43 -18t44.5 -8.5q21 0 32.5 9.5t18.5 31.5z" />
    <glyph glyph-name="hungarumlaut" unicode="&#x2dd;" horiz-adv-x="480" 
d="M247 586l89 189l72 -35l-114 -177zM72 586l89 189l72 -35l-115 -177z" />
    <glyph glyph-name="uni0394" unicode="&#x394;" horiz-adv-x="874" 
d="M10 0l358 717h125l370 -717h-853zM428 565l-218 -453h439z" />
    <glyph glyph-name="uni03A9" unicode="&#x3a9;" horiz-adv-x="878" 
d="M504 0v110q40 21 75 48.5t60.5 62.5t40 77.5t14.5 93.5q0 63 -18.5 103t-52 63.5t-80.5 32t-105 8.5q-57 0 -104 -8.5t-80 -32t-51.5 -63.5t-18.5 -103q0 -51 14.5 -93.5t40 -77.5t60 -62.5t75.5 -48.5v-110h-333v150h183q-34 20 -66 47.5t-57.5 63t-41 79.5t-15.5 97
q0 90 24 147t72.5 89t122.5 44t175 12t175.5 -12t123.5 -44t73 -88.5t24 -146.5q0 -54 -15.5 -98t-41 -79.5t-57.5 -63t-66 -47.5h182v-150h-332z" />
    <glyph glyph-name="uni03BC" unicode="&#x3bc;" horiz-adv-x="639" 
d="M64 -66v600h115v-216q0 -63 35 -96.5t114 -33.5q73 0 108.5 31t35.5 98v217h115v-236q0 -59 -19.5 -100.5t-51.5 -67t-73.5 -37t-85.5 -11.5q-63 0 -108 20t-70 44v-212h-115z" />
    <glyph glyph-name="pi" unicode="&#x3c0;" horiz-adv-x="540" 
d="M494 0q-72 0 -99.5 27t-27.5 93v319h-218v-439h-91v534h400v-408q0 -21 7 -31.5t29 -10.5h29v-84h-29z" />
    <glyph glyph-name="Wgrave" unicode="&#x1e80;" horiz-adv-x="1233" 
d="M833 0l-211 547l-214 -547h-106l-288 717h154l191 -515l201 515h132l194 -515l185 515h147l-290 -717h-95zM450 889l50 71l243 -170l-29 -44z" />
    <glyph glyph-name="wgrave" unicode="&#x1e81;" horiz-adv-x="903" 
d="M602 0l-146 378l-148 -378h-81l-213 534h128l128 -357l137 357h102l134 -357l123 357h122l-211 -534h-75zM283 706l50 71l243 -170l-29 -44z" />
    <glyph glyph-name="Wacute" unicode="&#x1e82;" horiz-adv-x="1233" 
d="M833 0l-211 547l-214 -547h-106l-288 717h154l191 -515l201 515h132l194 -515l185 515h147l-290 -717h-95zM539 746l-29 44l243 170l50 -71z" />
    <glyph glyph-name="wacute" unicode="&#x1e83;" horiz-adv-x="903" 
d="M602 0l-146 378l-148 -378h-81l-213 534h128l128 -357l137 357h102l134 -357l123 357h122l-211 -534h-75zM374 563l-29 44l243 170l50 -71z" />
    <glyph glyph-name="Wdieresis" unicode="&#x1e84;" horiz-adv-x="1233" 
d="M833 0l-211 547l-214 -547h-106l-288 717h154l191 -515l201 515h132l194 -515l185 515h147l-290 -717h-95zM503 786q-29 0 -46.5 15t-17.5 47t17.5 47.5t46.5 15.5q26 0 43 -15.5t17 -47.5t-17 -47t-43 -15zM753 786q-29 0 -46 15t-17 47t17 47.5t46 15.5q61 0 61 -63
q0 -62 -61 -62z" />
    <glyph glyph-name="wdieresis" unicode="&#x1e85;" horiz-adv-x="903" 
d="M602 0l-146 378l-148 -378h-81l-213 534h128l128 -357l137 357h102l134 -357l123 357h122l-211 -534h-75zM335 603q-29 0 -46.5 15t-17.5 47t17.5 47.5t46.5 15.5q26 0 43 -15.5t17 -47.5t-17 -47t-43 -15zM585 603q-29 0 -46 15t-17 47t17 47.5t46 15.5q61 0 61 -63
q0 -62 -61 -62z" />
    <glyph glyph-name="Ygrave" unicode="&#x1ef2;" horiz-adv-x="844" 
d="M360 0v289l-353 428h168l252 -314l250 314h160l-348 -429v-288h-129zM245 889l50 71l243 -170l-29 -44z" />
    <glyph glyph-name="ygrave" unicode="&#x1ef3;" horiz-adv-x="646" 
d="M271 0v213l-264 321h143l178 -224l176 224h134l-253 -321v-213h-114zM146 706l50 71l243 -170l-29 -44z" />
    <glyph glyph-name="endash" unicode="&#x2013;" horiz-adv-x="643" 
d="M26 228v91h590v-91h-590z" />
    <glyph glyph-name="emdash" unicode="&#x2014;" horiz-adv-x="1068" 
d="M26 228v91h1014v-91h-1014z" />
    <glyph glyph-name="quoteleft" unicode="&#x2018;" horiz-adv-x="242" 
d="M179 724q-19 -14 -31 -36.5t-13 -47.5q53 0 53 -57q0 -27 -18.5 -40.5t-51.5 -13.5q-38 0 -54 17.5t-16 52.5q0 39 24 81t67 71z" />
    <glyph glyph-name="quoteright" unicode="&#x2019;" horiz-adv-x="241" 
d="M62 527q18 14 30.5 36.5t12.5 47.5q-52 0 -52 57q0 55 70 55q38 0 54 -18.5t16 -52.5q0 -19 -6.5 -40t-18.5 -41.5t-29 -38.5t-38 -32z" />
    <glyph glyph-name="quotesinglbase" unicode="&#x201a;" horiz-adv-x="241" 
d="M62 -62q18 14 30.5 37t12.5 47q-52 0 -52 57q0 54 70 54q38 0 54 -18t16 -52q0 -19 -6.5 -40t-18.5 -41.5t-29 -38.5t-38 -32z" />
    <glyph glyph-name="quotedblleft" unicode="&#x201c;" horiz-adv-x="484" 
d="M179 724q-19 -14 -31 -36.5t-13 -47.5q53 0 53 -57q0 -27 -18.5 -40.5t-51.5 -13.5q-38 0 -54 17.5t-16 52.5q0 39 24 81t67 71zM421 724q-19 -14 -31 -36.5t-13 -47.5q53 0 53 -57q0 -27 -18.5 -40.5t-51.5 -13.5q-38 0 -54 17.5t-16 52.5q0 39 24 81t67 71z" />
    <glyph glyph-name="quotedblright" unicode="&#x201d;" horiz-adv-x="482" 
d="M62 527q18 14 30.5 36.5t12.5 47.5q-52 0 -52 57q0 55 70 55q38 0 54 -18.5t16 -52.5q0 -19 -6.5 -40t-18.5 -41.5t-29 -38.5t-38 -32zM303 527q18 14 30.5 36.5t12.5 47.5q-52 0 -52 57q0 55 70 55q38 0 54 -18.5t16 -52.5q0 -19 -6.5 -40t-18.5 -41.5t-29 -38.5
t-38 -32z" />
    <glyph glyph-name="quotedblbase" unicode="&#x201e;" horiz-adv-x="482" 
d="M62 -62q18 14 30.5 37t12.5 47q-52 0 -52 57q0 54 70 54q38 0 54 -18t16 -52q0 -19 -6.5 -40t-18.5 -41.5t-29 -38.5t-38 -32zM303 -62q18 14 30.5 37t12.5 47q-52 0 -52 57q0 54 70 54q38 0 54 -18t16 -52q0 -19 -6.5 -40t-18.5 -41.5t-29 -38.5t-38 -32z" />
    <glyph glyph-name="dagger" unicode="&#x2020;" horiz-adv-x="491" 
d="M228 0l-28 501h-128v71h133l-8 145h96l-7 -145h132v-71h-126l-24 -501h-40z" />
    <glyph glyph-name="daggerdbl" unicode="&#x2021;" horiz-adv-x="491" 
d="M197 0l9 140h-134v72h127l11 120v65l-11 106h-127v71h133l-9 143h96l-6 -143h132v-71h-129l-7 -106v-65l8 -120h128v-72h-132l7 -140h-96z" />
    <glyph glyph-name="bullet" unicode="&#x2022;" horiz-adv-x="469" 
d="M417 368q0 -35 -15 -65t-40.5 -52t-59 -34.5t-70.5 -12.5t-70 12.5t-57.5 34.5t-39 52t-14.5 65q0 36 14.5 66t39 51t57.5 33t70 12t70.5 -12t59 -33t40.5 -51t15 -66z" />
    <glyph glyph-name="ellipsis" unicode="&#x2026;" horiz-adv-x="1160" 
d="M188 51q0 -62 -71 -62q-73 0 -73 62q0 59 73 59q71 0 71 -59zM652 51q0 -62 -71 -62q-73 0 -73 62q0 59 73 59q71 0 71 -59zM1116 51q0 -62 -71 -62q-73 0 -73 62q0 59 73 59q71 0 71 -59z" />
    <glyph glyph-name="perthousand" unicode="&#x2030;" horiz-adv-x="1236" 
d="M227 364q-48 0 -82.5 15t-56 40t-32 58.5t-10.5 70.5t11.5 71t34 60t56.5 42t79 16q48 0 82.5 -15.5t56 -42t32 -60t10.5 -69.5q0 -37 -11.5 -70.5t-34.5 -59t-56.5 -41t-78.5 -15.5zM227 444q25 0 43 9.5t29.5 24.5t17 34t5.5 38t-5.5 38t-17 34.5t-29.5 25t-43 9.5
q-26 0 -44.5 -9.5t-30 -25t-17 -35t-5.5 -39.5t5.5 -38.5t17 -33t30 -23.5t44.5 -9zM105 0l532 717h93l-527 -717h-98zM615 -19q-48 0 -82.5 15t-56 40t-32 58.5t-10.5 70.5t11.5 71t34 60t56.5 42t79 16q48 0 82.5 -15.5t56 -42t32 -60t10.5 -69.5q0 -37 -11.5 -70.5
t-34.5 -59t-56.5 -41t-78.5 -15.5zM615 61q25 0 43 9.5t29.5 24.5t17 34t5.5 38t-5.5 38t-17 34.5t-29.5 25t-43 9.5q-26 0 -44.5 -9.5t-30 -25t-17 -35t-5.5 -39.5t5.5 -38.5t17 -33t30 -23.5t44.5 -9zM1009 -19q-48 0 -82.5 15t-56 40t-32 58.5t-10.5 70.5t11.5 71t34 60
t56.5 42t79 16q48 0 82.5 -15.5t56 -42t32 -60t10.5 -69.5q0 -37 -11.5 -70.5t-34.5 -59t-56.5 -41t-78.5 -15.5zM1009 61q25 0 43 9.5t29.5 24.5t17 34t5.5 38t-5.5 38t-17 34.5t-29.5 25t-43 9.5q-26 0 -44.5 -9.5t-30 -25t-17 -35t-5.5 -39.5t5.5 -38.5t17 -33t30 -23.5
t44.5 -9z" />
    <glyph glyph-name="guilsinglleft" unicode="&#x2039;" horiz-adv-x="272" 
d="M25 282v74l181 134l40 -68l-147 -103l147 -102l-40 -68z" />
    <glyph glyph-name="guilsinglright" unicode="&#x203a;" horiz-adv-x="272" 
d="M65 149l-40 68l147 102l-147 103l40 68l181 -134v-74z" />
    <glyph glyph-name="fraction" unicode="&#x2044;" horiz-adv-x="217" 
d="M-204 0l532 717h93l-527 -717h-98z" />
    <glyph glyph-name="uni2070" unicode="&#x2070;" horiz-adv-x="444" 
d="M222 364q-48 0 -82.5 15t-56 40t-32 58.5t-10.5 70.5t11.5 71t34 60t56.5 42t79 16q48 0 82.5 -15.5t56 -42t32 -60t10.5 -69.5q0 -37 -11.5 -70.5t-34.5 -59t-56.5 -41t-78.5 -15.5zM222 444q25 0 43 9.5t29.5 24.5t17 34t5.5 38t-5.5 38t-17 34.5t-29.5 25t-43 9.5
q-26 0 -44.5 -9.5t-30 -25t-17 -35t-5.5 -39.5t5.5 -38.5t17 -33t30 -23.5t44.5 -9z" />
    <glyph glyph-name="uni2074" unicode="&#x2074;" horiz-adv-x="399" 
d="M236 373v63h-191l-27 55l228 240h74v-221h58v-74h-58v-63h-84zM236 611l-95 -101h95v101z" />
    <glyph glyph-name="uni2075" unicode="&#x2075;" horiz-adv-x="381" 
d="M151 664l-3 -62q13 8 29 11.5t39 3.5q24 0 47.5 -6.5t42 -21.5t30.5 -39t12 -58q0 -22 -8.5 -44.5t-27 -41t-48.5 -30.5t-73 -12q-57 0 -94.5 18.5t-62.5 43.5l60 66q26 -32 50 -40.5t51 -8.5q29 0 48 11t19 39q0 24 -20 39t-51 15t-45 -8.5t-22 -17.5l-62 14l7 196h258
v-67h-176z" />
    <glyph glyph-name="uni2076" unicode="&#x2076;" horiz-adv-x="397" 
d="M298 615q-29 42 -83 42q-53 0 -77 -29t-28 -69q18 17 49 28t67 11q25 0 49.5 -6.5t44 -20t31 -35t11.5 -51.5q0 -35 -15 -58.5t-38 -37.5t-50.5 -19.5t-52.5 -5.5q-48 0 -80 14.5t-51.5 39t-28 58t-8.5 72.5q0 40 11 74.5t33 60t55 40t78 14.5q42 0 73.5 -10t60.5 -41z
M282 488q0 41 -76 41q-78 0 -78 -43q0 -19 20 -31t58 -12t57 12.5t19 32.5z" />
    <glyph glyph-name="uni2077" unicode="&#x2077;" horiz-adv-x="349" 
d="M47 373q40 82 80.5 150.5t93.5 130.5h-191v77h284l17 -53q-61 -67 -106.5 -143.5t-83.5 -161.5h-94z" />
    <glyph glyph-name="uni2078" unicode="&#x2078;" horiz-adv-x="388" 
d="M290 565q11 -2 23 -8t22 -16.5t16.5 -25.5t6.5 -35q0 -62 -46 -89t-118 -27t-118 27t-46 89q0 20 6.5 35t16 25.5t21.5 16.5t24 8q-19 6 -34 24t-15 45q0 30 13.5 50t34.5 31.5t47 16.5t50 5t50 -5t47 -16.5t34.5 -31.5t13.5 -50q0 -27 -15 -45t-34 -24zM266 484
q-1 18 -20.5 29.5t-51.5 11.5q-34 0 -53.5 -11.5t-19.5 -29.5q0 -24 19.5 -33t53.5 -9q33 0 52.5 9t19.5 33zM263 623q0 20 -19 29.5t-50 9.5t-50 -9.5t-19 -29.5t19 -29t50 -9t50 9t19 29z" />
    <glyph glyph-name="uni2079" unicode="&#x2079;" horiz-adv-x="397" 
d="M90 468q15 -10 40 -17t52 -7q53 0 77 28t28 69q-18 -20 -49 -31t-67 -11q-26 0 -50 6.5t-43.5 20.5t-31 36t-11.5 52q0 36 17 59.5t41 37.5t51 20t47 6q48 0 80 -14t51.5 -39t28 -58.5t8.5 -72.5q0 -40 -11 -74.5t-33 -60t-55 -40t-78 -14.5q-42 0 -74.5 9.5t-57.5 26.5z
M269 613q0 18 -19 30.5t-56 12.5q-36 0 -54.5 -13t-18.5 -33q0 -41 73 -41q75 0 75 44z" />
    <glyph glyph-name="uni2080" unicode="&#x2080;" horiz-adv-x="444" 
d="M222 -19q-48 0 -82.5 15t-56 40t-32 58.5t-10.5 70.5t11.5 71t34 60t56.5 42t79 16q48 0 82.5 -15.5t56 -42t32 -60t10.5 -69.5q0 -37 -11.5 -70.5t-34.5 -59t-56.5 -41t-78.5 -15.5zM222 61q25 0 43 9.5t29.5 24.5t17 34t5.5 38t-5.5 38t-17 34.5t-29.5 25t-43 9.5
q-26 0 -44.5 -9.5t-30 -25t-17 -35t-5.5 -39.5t5.5 -38.5t17 -33t30 -23.5t44.5 -9z" />
    <glyph glyph-name="uni2081" unicode="&#x2081;" horiz-adv-x="242" 
d="M107 -10v272l-61 -21l-29 61l119 46h56v-358h-85z" />
    <glyph glyph-name="uni2082" unicode="&#x2082;" horiz-adv-x="401" 
d="M68 -10l-35 70q42 23 82 49t78 52q21 14 42.5 33t21.5 43q0 11 -5.5 18t-14.5 11t-19 5.5t-19 1.5q-27 0 -50 -13t-40 -35l-64 53q23 38 66.5 57t88.5 19q25 0 51 -5.5t46.5 -18.5t33.5 -34t13 -52q0 -32 -16 -59.5t-40 -49.5t-51.5 -39.5t-49.5 -29.5h178v-76h-297z" />
    <glyph glyph-name="uni2083" unicode="&#x2083;" horiz-adv-x="397" 
d="M90 104q9 -12 22 -20t29 -13.5t32 -8t31 -2.5q58 0 58 36q0 14 -9 22t-24.5 12.5t-37.5 5.5t-48 1v66q66 1 91 9t25 29q0 18 -19.5 23.5t-39.5 5.5q-30 0 -54.5 -10t-44.5 -34l-66 54q28 38 73.5 56t96.5 18q26 0 51.5 -6t45 -19t31.5 -33.5t12 -49.5q0 -25 -12.5 -44.5
t-39.5 -30.5q31 -8 49 -26t18 -56q0 -24 -11 -44t-31.5 -34t-48.5 -22t-62 -8q-42 0 -86.5 10.5t-79.5 39.5z" />
    <glyph glyph-name="uni2084" unicode="&#x2084;" horiz-adv-x="399" 
d="M236 -10v63h-191l-27 55l228 240h74v-221h58v-74h-58v-63h-84zM236 228l-95 -101h95v101z" />
    <glyph glyph-name="uni2085" unicode="&#x2085;" horiz-adv-x="381" 
d="M151 281l-3 -62q13 8 29 11.5t39 3.5q24 0 47.5 -6.5t42 -21.5t30.5 -39t12 -58q0 -22 -8.5 -44.5t-27 -41t-48.5 -30.5t-73 -12q-57 0 -94.5 18.5t-62.5 43.5l60 66q26 -32 50 -40.5t51 -8.5q29 0 48 11t19 39q0 24 -20 39t-51 15t-45 -8.5t-22 -17.5l-62 14l7 196h258
v-67h-176z" />
    <glyph glyph-name="uni2086" unicode="&#x2086;" horiz-adv-x="397" 
d="M298 232q-29 42 -83 42q-53 0 -77 -29t-28 -69q18 17 49 28t67 11q25 0 49.5 -6.5t44 -20t31 -35t11.5 -51.5q0 -35 -15 -58.5t-38 -37.5t-50.5 -19.5t-52.5 -5.5q-48 0 -80 14.5t-51.5 39t-28 58t-8.5 72.5q0 40 11 74.5t33 60t55 40t78 14.5q42 0 73.5 -10t60.5 -41z
M282 105q0 41 -76 41q-78 0 -78 -43q0 -19 20 -31t58 -12t57 12.5t19 32.5z" />
    <glyph glyph-name="uni2087" unicode="&#x2087;" horiz-adv-x="349" 
d="M47 -10q40 82 80.5 150.5t93.5 130.5h-191v77h284l17 -53q-61 -67 -106.5 -143.5t-83.5 -161.5h-94z" />
    <glyph glyph-name="uni2088" unicode="&#x2088;" horiz-adv-x="388" 
d="M290 182q11 -2 23 -8t22 -16.5t16.5 -25.5t6.5 -35q0 -62 -46 -89t-118 -27t-118 27t-46 89q0 20 6.5 35t16 25.5t21.5 16.5t24 8q-19 6 -34 24t-15 45q0 30 13.5 50t34.5 31.5t47 16.5t50 5t50 -5t47 -16.5t34.5 -31.5t13.5 -50q0 -27 -15 -45t-34 -24zM266 101
q-1 18 -20.5 29.5t-51.5 11.5q-34 0 -53.5 -11.5t-19.5 -29.5q0 -24 19.5 -33t53.5 -9q33 0 52.5 9t19.5 33zM263 240q0 20 -19 29.5t-50 9.5t-50 -9.5t-19 -29.5t19 -29t50 -9t50 9t19 29z" />
    <glyph glyph-name="uni2089" unicode="&#x2089;" horiz-adv-x="397" 
d="M90 85q15 -10 40 -17t52 -7q53 0 77 28t28 69q-18 -20 -49 -31t-67 -11q-26 0 -50 6.5t-43.5 20.5t-31 36t-11.5 52q0 36 17 59.5t41 37.5t51 20t47 6q48 0 80 -14t51.5 -39t28 -58.5t8.5 -72.5q0 -40 -11 -74.5t-33 -60t-55 -40t-78 -14.5q-42 0 -74.5 9.5t-57.5 26.5z
M269 230q0 18 -19 30.5t-56 12.5q-36 0 -54.5 -13t-18.5 -33q0 -41 73 -41q75 0 75 44z" />
    <glyph glyph-name="Euro" unicode="&#x20ac;" horiz-adv-x="805" 
d="M276 211q35 -54 99 -79.5t145 -25.5q116 0 189 43l74 -106q-48 -25 -116.5 -41.5t-146.5 -16.5q-69 0 -132 14t-115.5 42t-92 70.5t-60.5 99.5h-110l23 79h68q-3 25 -3 53v17.5t1 17.5h-72l25 80h57q13 58 42.5 108t79 86t121 56.5t168.5 20.5q91 0 151.5 -15.5
t108.5 -49.5l-69 -105q-28 21 -72 34t-119 13q-106 0 -171 -39.5t-92 -108.5h396l-51 -80h-366q0 -7 -0.5 -13.5t-0.5 -13.5q0 -33 6 -61h305l-48 -79h-222z" />
    <glyph glyph-name="trademark" unicode="&#x2122;" horiz-adv-x="916" 
d="M781 320v253l-132 -202l-140 203v-254h-85v397h93l132 -204l137 204h77v-397h-82zM154 320v314h-124v83h329v-83h-121v-314h-84z" />
    <glyph glyph-name="onethird" unicode="&#x2153;" horiz-adv-x="811" 
d="M146 373v272l-61 -21l-29 61l119 46h56v-358h-85zM47 0l532 717h93l-527 -717h-98zM495 104q9 -12 22 -20t29 -13.5t32 -8t31 -2.5q58 0 58 36q0 14 -9 22t-24.5 12.5t-37.5 5.5t-48 1v66q66 1 91 9t25 29q0 18 -19.5 23.5t-39.5 5.5q-30 0 -54.5 -10t-44.5 -34l-66 54
q28 38 73.5 56t96.5 18q26 0 51.5 -6t45 -19t31.5 -33.5t12 -49.5q0 -25 -12.5 -44.5t-39.5 -30.5q31 -8 49 -26t18 -56q0 -24 -11 -44t-31.5 -34t-48.5 -22t-62 -8q-42 0 -86.5 10.5t-79.5 39.5z" />
    <glyph glyph-name="twothirds" unicode="&#x2154;" horiz-adv-x="874" 
d="M81 373l-35 70q42 23 82 49t78 52q21 14 42.5 33t21.5 43q0 11 -5.5 18t-14.5 11t-19 5.5t-19 1.5q-27 0 -50 -13t-40 -35l-64 53q23 38 66.5 57t88.5 19q25 0 51 -5.5t46.5 -18.5t33.5 -34t13 -52q0 -32 -16 -59.5t-40 -49.5t-51.5 -39.5t-49.5 -29.5h178v-76h-297z
M140 0l532 717h93l-527 -717h-98zM558 104q9 -12 22 -20t29 -13.5t32 -8t31 -2.5q58 0 58 36q0 14 -9 22t-24.5 12.5t-37.5 5.5t-48 1v66q66 1 91 9t25 29q0 18 -19.5 23.5t-39.5 5.5q-30 0 -54.5 -10t-44.5 -34l-66 54q28 38 73.5 56t96.5 18q26 0 51.5 -6t45 -19
t31.5 -33.5t12 -49.5q0 -25 -12.5 -44.5t-39.5 -30.5q31 -8 49 -26t18 -56q0 -24 -11 -44t-31.5 -34t-48.5 -22t-62 -8q-42 0 -86.5 10.5t-79.5 39.5z" />
    <glyph glyph-name="oneeighth" unicode="&#x215b;" horiz-adv-x="789" 
d="M146 373v272l-61 -21l-29 61l119 46h56v-358h-85zM47 0l532 717h93l-527 -717h-98zM675 182q11 -2 23 -8t22 -16.5t16.5 -25.5t6.5 -35q0 -62 -46 -89t-118 -27t-118 27t-46 89q0 20 6.5 35t16 25.5t21.5 16.5t24 8q-19 6 -34 24t-15 45q0 30 13.5 50t34.5 31.5t47 16.5
t50 5t50 -5t47 -16.5t34.5 -31.5t13.5 -50q0 -27 -15 -45t-34 -24zM651 101q-1 18 -20.5 29.5t-51.5 11.5q-34 0 -53.5 -11.5t-19.5 -29.5q0 -24 19.5 -33t53.5 -9q33 0 52.5 9t19.5 33zM648 240q0 20 -19 29.5t-50 9.5t-50 -9.5t-19 -29.5t19 -29t50 -9t50 9t19 29z" />
    <glyph glyph-name="threeeighths" unicode="&#x215c;" horiz-adv-x="816" 
d="M101 487q9 -12 22 -20t29 -13.5t32 -8t31 -2.5q58 0 58 36q0 14 -9 22t-24.5 12.5t-37.5 5.5t-48 1v66q66 1 91 9t25 29q0 18 -19.5 23.5t-39.5 5.5q-30 0 -54.5 -10t-44.5 -34l-66 54q28 38 73.5 56t96.5 18q26 0 51.5 -6t45 -19t31.5 -33.5t12 -49.5q0 -25 -12.5 -44.5
t-39.5 -30.5q31 -8 49 -26t18 -56q0 -24 -11 -44t-31.5 -34t-48.5 -22t-62 -8q-42 0 -86.5 10.5t-79.5 39.5zM94 0l532 717h93l-527 -717h-98zM702 182q11 -2 23 -8t22 -16.5t16.5 -25.5t6.5 -35q0 -62 -46 -89t-118 -27t-118 27t-46 89q0 20 6.5 35t16 25.5t21.5 16.5t24 8
q-19 6 -34 24t-15 45q0 30 13.5 50t34.5 31.5t47 16.5t50 5t50 -5t47 -16.5t34.5 -31.5t13.5 -50q0 -27 -15 -45t-34 -24zM678 101q-1 18 -20.5 29.5t-51.5 11.5q-34 0 -53.5 -11.5t-19.5 -29.5q0 -24 19.5 -33t53.5 -9q33 0 52.5 9t19.5 33zM675 240q0 20 -19 29.5t-50 9.5
t-50 -9.5t-19 -29.5t19 -29t50 -9t50 9t19 29z" />
    <glyph glyph-name="fiveeighths" unicode="&#x215d;" horiz-adv-x="821" 
d="M163 664l-3 -62q13 8 29 11.5t39 3.5q24 0 47.5 -6.5t42 -21.5t30.5 -39t12 -58q0 -22 -8.5 -44.5t-27 -41t-48.5 -30.5t-73 -12q-57 0 -94.5 18.5t-62.5 43.5l60 66q26 -32 50 -40.5t51 -8.5q29 0 48 11t19 39q0 24 -20 39t-51 15t-45 -8.5t-22 -17.5l-62 14l7 196h258
v-67h-176zM89 0l532 717h93l-527 -717h-98zM707 182q11 -2 23 -8t22 -16.5t16.5 -25.5t6.5 -35q0 -62 -46 -89t-118 -27t-118 27t-46 89q0 20 6.5 35t16 25.5t21.5 16.5t24 8q-19 6 -34 24t-15 45q0 30 13.5 50t34.5 31.5t47 16.5t50 5t50 -5t47 -16.5t34.5 -31.5t13.5 -50
q0 -27 -15 -45t-34 -24zM683 101q-1 18 -20.5 29.5t-51.5 11.5q-34 0 -53.5 -11.5t-19.5 -29.5q0 -24 19.5 -33t53.5 -9q33 0 52.5 9t19.5 33zM680 240q0 20 -19 29.5t-50 9.5t-50 -9.5t-19 -29.5t19 -29t50 -9t50 9t19 29z" />
    <glyph glyph-name="seveneighths" unicode="&#x215e;" horiz-adv-x="799" 
d="M99 373q40 82 80.5 150.5t93.5 130.5h-191v77h284l17 -53q-61 -67 -106.5 -143.5t-83.5 -161.5h-94zM47 0l532 717h93l-527 -717h-98zM685 182q11 -2 23 -8t22 -16.5t16.5 -25.5t6.5 -35q0 -62 -46 -89t-118 -27t-118 27t-46 89q0 20 6.5 35t16 25.5t21.5 16.5t24 8
q-19 6 -34 24t-15 45q0 30 13.5 50t34.5 31.5t47 16.5t50 5t50 -5t47 -16.5t34.5 -31.5t13.5 -50q0 -27 -15 -45t-34 -24zM661 101q-1 18 -20.5 29.5t-51.5 11.5q-34 0 -53.5 -11.5t-19.5 -29.5q0 -24 19.5 -33t53.5 -9q33 0 52.5 9t19.5 33zM658 240q0 20 -19 29.5t-50 9.5
t-50 -9.5t-19 -29.5t19 -29t50 -9t50 9t19 29z" />
    <glyph glyph-name="partialdiff" unicode="&#x2202;" horiz-adv-x="543" 
d="M158 559q4 52 20.5 85t41.5 52t56.5 26t66.5 7q45 0 74.5 -13t47.5 -36t25 -53.5t7 -64.5q0 -44 -7 -104t-23 -124.5t-41 -127.5t-60.5 -112.5t-82.5 -80t-107 -30.5q-36 0 -61 11t-40.5 31t-22.5 47t-7 59q0 46 11 101.5t37.5 103t69.5 79.5t106 32q48 0 77 -31t38 -79
q6 21 12 48.5t11 56t8 55t3 46.5q0 42 -18.5 71.5t-66.5 29.5q-42 0 -66.5 -24t-32.5 -67zM365 291q-27 66 -96 66q-37 0 -63 -19t-42 -48t-23.5 -62.5t-7.5 -63.5q0 -18 3.5 -33.5t11.5 -27.5t21.5 -19t34.5 -7q39 0 67 24t47.5 58t30.5 70.5t16 61.5z" />
    <glyph glyph-name="product" unicode="&#x220f;" horiz-adv-x="574" 
d="M434 -101v751h-296v-751h-67v818h431v-818h-68z" />
    <glyph glyph-name="summation" unicode="&#x2211;" horiz-adv-x="468" 
d="M34 -101v67l155 348l-154 349v54h393v-71h-310l-1 -1l149 -331l-146 -340l1 -1h311v-74h-398z" />
    <glyph glyph-name="minus" unicode="&#x2212;" 
d="M71 324v85h454v-85h-454z" />
    <glyph glyph-name="radical" unicode="&#x221a;" horiz-adv-x="531" 
d="M220 0l-77 286h-110v85h175l64 -279l151 625h91l-186 -717h-108z" />
    <glyph glyph-name="infinity" unicode="&#x221e;" horiz-adv-x="635" 
d="M316 281q-6 -23 -19 -38t-30 -24t-36 -12.5t-37 -3.5q-27 0 -52 6.5t-44.5 24.5t-31 49.5t-11.5 81.5t11.5 81.5t31 49.5t44.5 24.5t52 6.5q18 0 37 -4t36 -13t30 -24t19 -37q7 22 20.5 37t30.5 24t36 13t36 4q27 0 52 -6.5t44.5 -24.5t31.5 -49.5t12 -81.5t-12 -81.5
t-31.5 -49.5t-44.5 -24.5t-52 -6.5q-17 0 -36 3.5t-36 12.5t-30.5 24t-20.5 38zM291 365q0 21 -6 34.5t-17.5 20.5t-27.5 9.5t-35 2.5q-17 0 -31.5 -2t-25.5 -9t-17 -20.5t-6 -35.5q0 -23 6 -36t17 -19.5t25.5 -8.5t31.5 -2q19 0 35 2t27.5 9t17.5 20t6 35zM509 366
q0 22 -6 35.5t-17 20.5t-25.5 9t-32.5 2q-19 0 -34.5 -2.5t-27 -9.5t-17.5 -20.5t-6 -34.5q0 -42 23.5 -54.5t61.5 -12.5q18 0 32.5 2t25.5 9t17 20t6 36z" />
    <glyph glyph-name="integral" unicode="&#x222b;" horiz-adv-x="397" 
d="M163 624q0 23 5.5 45.5t18.5 40.5t35.5 29t57.5 11q29 0 58.5 -11t44.5 -31l-19 -71q-15 17 -33.5 27.5t-35.5 10.5q-18 0 -29.5 -5.5t-18.5 -14t-10 -19t-3 -20.5v-637q0 -22 -5.5 -43.5t-18.5 -39t-36 -28.5t-57 -11q-29 0 -57.5 11.5t-45.5 31.5l20 70q15 -17 33 -27
t36 -10q35 0 47.5 16.5t12.5 39.5v635z" />
    <glyph glyph-name="approxequal" unicode="&#x2248;" 
d="M525 243q-20 -35 -50.5 -49.5t-64.5 -14.5q-40 0 -67 11.5t-50 25t-47.5 25t-59.5 11.5q-26 0 -45 -8.5t-33 -20.5t-23 -25.5t-14 -22.5v96q20 35 50.5 49.5t64.5 14.5q39 0 65 -11.5t49 -25t48 -25t62 -11.5q25 0 44 8.5t33 20.5t23.5 25.5t14.5 22.5v-96zM525 462
q-20 -35 -50.5 -49.5t-64.5 -14.5q-40 0 -67 11.5t-50 25t-47.5 25t-59.5 11.5q-26 0 -45 -8.5t-33 -20.5t-23 -25.5t-14 -22.5v96q20 35 50.5 49.5t64.5 14.5q39 0 65 -11.5t49 -25t48 -25t62 -11.5q25 0 44 8.5t33 20.5t23.5 25.5t14.5 22.5v-96z" />
    <glyph glyph-name="notequal" unicode="&#x2260;" 
d="M-15 0l169 228h-83v85h146l79 107h-225v85h288l158 212h93l-156 -212h71v-85h-134l-78 -107h212v-85h-275l-167 -228h-98z" />
    <glyph glyph-name="lessequal" unicode="&#x2264;" 
d="M71 323v85l454 152v-92l-333 -102l333 -102v-92zM71 45v85h454v-85h-454z" />
    <glyph glyph-name="greaterequal" unicode="&#x2265;" 
d="M71 172v92l332 102l-332 102v92l454 -152v-85zM71 45v85h454v-85h-454z" />
    <glyph glyph-name="lozenge" unicode="&#x25ca;" horiz-adv-x="560" 
d="M247 0l-223 359l223 358h72l216 -358l-216 -359h-72zM432 359l-147 262l-161 -262l161 -264z" />
    <glyph glyph-name="uniF8FF" unicode="&#xf8ff;" horiz-adv-x="310" 
 />
    <glyph glyph-name="glyph397" horiz-adv-x="0" 
 />
    </font>
</defs>
</svg>
